<svg width="27" height="26" viewBox="0 0 27 26" fill="none" xmlns="http://www.w3.org/2000/svg">
<path opacity="0.5" d="M13.5 2.16663C11.275 2.16663 9.09989 2.80199 7.24984 3.99237C5.39979 5.18275 3.95785 6.87469 3.10636 8.85422C2.25487 10.8338 2.03209 13.012 2.46617 15.1134C2.90025 17.2149 3.97171 19.1452 5.54505 20.6603C7.11839 22.1754 9.12295 23.2071 11.3052 23.6251C13.4875 24.0431 15.7495 23.8286 17.8052 23.0087C19.8609 22.1887 21.6179 20.8002 22.854 19.0186C24.0902 17.2371 24.75 15.1426 24.75 13C24.75 11.5773 24.459 10.1686 23.8937 8.85422C23.3283 7.53986 22.4996 6.3456 21.455 5.33964C20.4103 4.33367 19.1701 3.53569 17.8052 2.99126C16.4403 2.44684 14.9774 2.16663 13.5 2.16663ZM13.5 21.6666C11.72 21.6666 9.97992 21.1583 8.49987 20.206C7.01983 19.2537 5.86628 17.9002 5.18509 16.3165C4.5039 14.7329 4.32567 12.9903 4.67294 11.3092C5.0202 9.62801 5.87737 8.08376 7.13604 6.8717C8.39472 5.65965 9.99836 4.83423 11.7442 4.49982C13.49 4.16542 15.2996 4.33704 16.9442 4.993C18.5887 5.64896 19.9943 6.75979 20.9832 8.18502C21.9722 9.61024 22.5 11.2859 22.5 13C22.5 15.2985 21.5518 17.5029 19.864 19.1282C18.1761 20.7535 15.887 21.6666 13.5 21.6666Z" fill="#FEFBFB"/>
<path d="M22.5 13H24.75C24.75 11.5773 24.459 10.1686 23.8936 8.85422C23.3283 7.53986 22.4996 6.3456 21.455 5.33964C20.4103 4.33367 19.1701 3.53569 17.8052 2.99126C16.4403 2.44684 14.9774 2.16663 13.5 2.16663V4.33329C15.8869 4.33329 18.1761 5.24639 19.864 6.8717C21.5518 8.49702 22.5 10.7014 22.5 13Z" fill="black"/>
</svg>
