<?xml version="1.0" standalone="no"?>
<!DOCTYPE svg PUBLIC "-//W3C//DTD SVG 20010904//EN"
 "http://www.w3.org/TR/2001/REC-SVG-20010904/DTD/svg10.dtd">
<svg version="1.0" xmlns="http://www.w3.org/2000/svg"
 width="1920.000000pt" height="1920.000000pt" viewBox="0 0 1920.000000 1920.000000"
 preserveAspectRatio="xMidYMid meet">
<metadata>
Created by potrace 1.14, written by Peter Selinger 2001-2017
</metadata>
<g transform="translate(0.000000,1920.000000) scale(0.100000,-0.100000)"
fill="#000000" stroke="none">
<path d="M9562 14008 c-7 -7 -12 -9 -12 -5 0 4 -9 3 -20 -3 -11 -6 -20 -7 -20
-2 0 5 -7 9 -15 9 -8 0 -15 -5 -15 -11 0 -8 -3 -8 -8 0 -4 5 -18 10 -32 10
-14 0 -28 -5 -32 -10 -5 -8 -8 -8 -8 -1 0 6 -9 11 -20 12 -11 1 -18 -2 -15 -7
6 -10 -14 -8 -32 3 -6 4 -18 1 -26 -7 -8 -8 -26 -13 -41 -12 -14 2 -29 -1 -32
-6 -3 -5 -12 -4 -20 3 -11 9 -14 8 -14 -2 0 -9 -3 -10 -8 -4 -6 9 -26 12 -34
5 -8 -6 -48 -6 -48 1 0 4 -9 5 -20 2 -11 -3 -20 -10 -20 -16 0 -6 -3 -8 -6 -5
-3 4 -19 2 -35 -2 -16 -5 -31 -5 -34 0 -3 5 -16 5 -30 0 -18 -7 -25 -6 -25 2
0 13 -14 1 -16 -13 -3 -22 -5 -23 -13 -10 -6 10 -13 11 -29 2 -14 -7 -23 -8
-27 -1 -3 5 -11 10 -16 10 -6 0 -7 -4 -4 -10 3 -5 0 -7 -8 -4 -8 3 -21 -2 -30
-11 -10 -9 -18 -11 -22 -5 -4 7 -12 7 -25 0 -13 -7 -20 -6 -22 2 -3 7 -13 3
-28 -12 -15 -15 -25 -19 -28 -12 -2 7 -8 12 -13 12 -6 0 -8 -4 -5 -9 3 -4 -5
-7 -19 -6 -14 2 -26 -3 -30 -13 -4 -11 -9 -12 -17 -4 -8 8 -17 8 -30 1 -10 -5
-18 -6 -18 -2 0 4 -5 1 -10 -8 -6 -10 -21 -15 -40 -14 -17 1 -30 -3 -30 -9 0
-7 -9 -12 -20 -13 -13 -1 -18 3 -14 10 3 7 -3 3 -13 -9 -11 -12 -29 -19 -45
-19 -18 1 -28 -4 -31 -17 -4 -15 -10 -17 -30 -9 -19 7 -27 6 -30 -3 -3 -8 -18
-13 -32 -13 -15 0 -31 -7 -36 -14 -4 -7 -11 -10 -15 -6 -4 4 -12 0 -18 -7 -6
-8 -24 -16 -41 -18 -16 -2 -35 -10 -42 -18 -11 -13 -12 -13 -13 0 0 13 -2 13
-9 0 -6 -8 -7 -18 -5 -22 3 -4 -2 -5 -10 -2 -8 3 -25 -1 -38 -10 -27 -19 -52
-21 -43 -3 4 6 0 4 -8 -6 -8 -10 -24 -19 -36 -20 -12 -1 -21 -7 -21 -15 0 -7
-5 -10 -10 -7 -6 3 -13 -1 -16 -10 -5 -11 -10 -13 -19 -5 -10 8 -17 5 -29 -12
-9 -12 -16 -19 -16 -15 0 4 -9 3 -20 -3 -11 -6 -18 -15 -15 -21 4 -5 0 -9 -9
-9 -8 0 -17 -6 -19 -12 -4 -10 -6 -10 -6 -1 -1 7 -8 10 -16 7 -8 -4 -13 -10
-10 -14 3 -4 -2 -11 -11 -14 -10 -4 -13 -2 -9 7 4 6 0 4 -9 -7 -8 -10 -20 -15
-27 -10 -8 4 -10 3 -5 -4 5 -8 0 -12 -13 -12 -12 0 -21 -7 -21 -15 0 -13 -18
-20 -42 -16 -5 0 -8 -6 -8 -14 0 -21 -34 -37 -49 -22 -10 9 -11 8 -6 -5 5 -12
2 -18 -8 -18 -9 0 -19 -9 -22 -21 -5 -13 -11 -17 -18 -11 -11 8 -51 -21 -42
-30 2 -2 -4 -4 -15 -5 -18 -2 -68 -43 -52 -43 4 0 -9 -8 -28 -18 -44 -21 -70
-43 -70 -59 0 -7 -6 -10 -14 -7 -8 3 -17 0 -21 -5 -3 -6 -11 -9 -16 -5 -5 3
-8 2 -7 -3 5 -16 -102 -115 -118 -109 -9 3 -12 1 -9 -4 3 -6 1 -10 -4 -10 -6
0 -11 -7 -11 -15 0 -8 -3 -14 -7 -14 -21 3 -33 -2 -28 -12 4 -6 -2 -13 -14
-16 -13 -3 -21 -13 -21 -27 0 -17 -2 -18 -10 -6 -6 10 -10 11 -10 3 0 -7 -26
-39 -57 -70 -32 -32 -57 -62 -55 -66 1 -5 -1 -6 -6 -3 -5 3 -16 -4 -25 -15 -9
-10 -12 -19 -6 -19 5 0 7 -5 4 -10 -4 -6 -11 -8 -16 -4 -5 3 -8 0 -7 -8 2 -7
-3 -12 -10 -10 -8 1 -11 -2 -7 -8 3 -5 1 -10 -4 -10 -6 0 -11 -8 -11 -17 0
-15 -2 -16 -10 -3 -8 13 -10 12 -10 -2 0 -10 -4 -18 -10 -18 -5 0 -10 -7 -10
-15 0 -8 -5 -15 -11 -15 -6 0 -9 -7 -6 -15 4 -8 1 -17 -5 -21 -7 -5 -8 -2 -3
7 4 8 -3 3 -17 -11 -13 -14 -22 -29 -20 -34 3 -5 -2 -6 -12 -3 -10 4 -15 3
-11 -3 3 -6 1 -10 -5 -10 -6 0 -8 -4 -5 -10 3 -5 2 -10 -4 -10 -6 0 -7 -7 -4
-17 4 -10 2 -14 -4 -10 -6 4 -14 0 -17 -9 -3 -8 -11 -12 -17 -8 -7 4 -9 3 -5
-4 3 -6 1 -16 -6 -24 -7 -7 -19 -25 -27 -40 -8 -16 -18 -28 -23 -28 -4 0 -8
-10 -8 -22 0 -12 -3 -18 -7 -15 -9 9 -32 -24 -33 -46 0 -10 -4 -15 -10 -12 -5
3 -10 -1 -10 -10 0 -9 -4 -13 -10 -10 -5 3 -10 -3 -10 -15 0 -12 -7 -28 -15
-37 -8 -8 -13 -19 -9 -24 3 -5 -2 -12 -10 -15 -16 -6 -61 -84 -48 -84 4 0 -2
-7 -12 -15 -11 -8 -17 -18 -13 -21 3 -4 -1 -13 -9 -21 -8 -9 -13 -22 -10 -29
3 -8 -1 -14 -9 -14 -9 0 -12 -6 -8 -17 4 -11 3 -14 -5 -9 -7 4 -13 1 -13 -8
-1 -9 -3 -20 -4 -26 -1 -5 -3 -14 -4 -20 0 -5 -8 -7 -16 -4 -13 5 -14 2 -6
-19 9 -22 8 -25 -6 -20 -10 4 -14 2 -9 -5 3 -6 2 -13 -4 -17 -6 -4 -8 -10 -5
-15 3 -4 -3 -11 -12 -14 -15 -6 -15 -8 -3 -16 13 -9 13 -10 0 -11 -8 -1 -18
-1 -21 -1 -10 2 -5 -32 6 -40 6 -5 5 -8 -3 -8 -7 0 -11 -4 -7 -9 3 -6 -3 -14
-12 -20 -16 -9 -16 -12 -3 -21 13 -8 13 -10 -1 -10 -19 0 -31 -23 -23 -44 3
-7 -2 -16 -12 -20 -14 -5 -14 -9 -3 -23 12 -14 12 -16 0 -8 -11 6 -13 2 -9
-18 3 -15 2 -24 -3 -22 -12 8 -38 -52 -35 -80 2 -14 -3 -30 -10 -36 -17 -14
-18 -36 -1 -42 9 -4 9 -6 -1 -6 -7 -1 -10 -5 -7 -11 4 -6 -1 -7 -11 -3 -14 5
-16 2 -12 -21 3 -16 0 -33 -9 -42 -8 -8 -14 -24 -13 -37 2 -28 -10 -68 -19
-62 -4 2 -5 -9 -3 -25 5 -38 -6 -83 -18 -75 -6 3 -10 1 -10 -4 0 -6 5 -11 11
-11 8 0 8 -5 -1 -15 -10 -12 -10 -15 1 -15 11 0 11 -3 -1 -11 -12 -8 -12 -12
-2 -16 9 -3 7 -10 -9 -24 -12 -10 -17 -19 -10 -19 7 0 10 -4 7 -8 -3 -5 -6
-26 -7 -48 -1 -21 -7 -45 -13 -53 -6 -7 -11 -46 -12 -85 -2 -94 -2 -98 -15
-90 -7 4 -9 0 -5 -14 4 -11 2 -23 -4 -27 -6 -3 -7 -12 -3 -18 12 -19 11 -81
-1 -89 -8 -6 -8 -8 0 -8 6 0 11 -14 12 -30 0 -21 -3 -28 -11 -23 -9 5 -9 3 -1
-8 15 -18 15 -69 0 -69 -7 0 -8 -3 0 -8 14 -9 15 -84 1 -75 -6 4 -7 1 -1 -8
13 -20 13 -83 0 -91 -8 -6 -8 -8 0 -8 15 0 15 -101 0 -119 -8 -11 -8 -13 1 -8
14 9 15 -52 1 -70 -5 -7 -5 -14 2 -18 5 -3 10 -11 10 -16 0 -6 -5 -7 -12 -3
-8 5 -8 3 -2 -7 5 -8 9 -27 10 -44 0 -19 5 -29 13 -27 8 1 11 -6 10 -20 -2
-13 0 -29 4 -35 5 -8 4 -13 -2 -13 -6 0 -9 -10 -7 -22 3 -13 5 -38 5 -56 1
-24 5 -31 14 -26 6 4 9 4 5 -1 -4 -4 -3 -14 3 -22 6 -7 7 -13 2 -13 -5 0 -9
-18 -9 -40 1 -22 6 -40 12 -40 6 0 11 -8 11 -17 0 -75 4 -104 14 -97 7 4 10
-4 8 -22 -2 -16 0 -35 4 -42 5 -7 3 -12 -3 -12 -7 0 -5 -7 4 -16 9 -8 16 -28
16 -44 0 -16 6 -30 12 -32 7 -3 11 -18 10 -38 -1 -18 2 -36 7 -40 6 -3 11 -20
13 -37 1 -17 6 -29 10 -27 7 5 13 -26 9 -48 0 -5 4 -8 10 -8 5 0 7 -4 4 -10
-3 -5 -2 -10 3 -10 5 0 7 -12 4 -26 -3 -19 -1 -25 7 -20 7 4 11 0 11 -11 0
-11 6 -25 13 -32 10 -11 9 -12 -2 -6 -16 9 -9 -7 18 -39 9 -11 10 -16 4 -12
-18 10 -16 -10 3 -28 8 -9 12 -20 9 -26 -3 -6 1 -13 10 -16 9 -4 14 -13 11
-21 -3 -7 1 -16 9 -19 8 -4 12 -10 9 -15 -3 -5 1 -9 8 -9 8 0 9 -3 3 -8 -13
-9 -18 -35 -5 -27 5 3 10 -1 10 -10 0 -10 5 -13 13 -9 8 5 8 2 -2 -9 -12 -15
-9 -21 10 -19 4 1 10 -11 14 -26 4 -15 12 -30 18 -34 9 -6 8 -8 -2 -8 -10 0
-9 -5 5 -17 10 -10 20 -25 22 -33 2 -8 8 -17 13 -18 5 -2 7 -7 4 -12 -3 -5 0
-14 7 -22 7 -7 14 -20 16 -28 2 -8 8 -16 13 -18 5 -2 9 -15 9 -29 0 -15 3 -24
6 -20 10 9 36 -21 29 -33 -3 -6 1 -13 9 -16 9 -3 13 -10 10 -15 -3 -5 -1 -9 5
-9 5 0 8 -9 6 -20 -2 -11 -1 -19 3 -19 20 3 32 -2 27 -11 -3 -5 -2 -10 4 -10
6 0 7 -7 4 -17 -4 -9 -2 -14 3 -11 9 6 29 -10 32 -27 6 -30 14 -45 22 -40 5 3
12 0 16 -6 4 -8 3 -9 -4 -5 -7 4 -12 1 -12 -9 0 -8 8 -19 18 -22 26 -10 43
-30 45 -53 1 -11 9 -23 19 -26 10 -3 17 -11 15 -17 -1 -7 4 -11 11 -9 8 1 11
-2 7 -8 -3 -5 -1 -10 4 -10 6 0 10 -3 10 -7 -3 -21 3 -33 17 -33 8 0 12 -4 9
-10 -3 -5 -1 -10 5 -10 6 0 8 -5 4 -12 -4 -7 -3 -8 4 -4 6 3 16 -3 22 -15 10
-17 9 -20 -2 -14 -7 3 -5 0 4 -8 10 -8 15 -17 11 -20 -3 -4 4 -7 17 -7 13 0
20 -3 17 -7 -4 -3 5 -16 18 -29 14 -13 25 -29 25 -36 0 -10 2 -10 9 0 6 10 10
8 14 -8 3 -12 10 -19 16 -15 7 4 8 0 5 -10 -4 -9 2 -23 16 -35 12 -10 19 -23
16 -28 -3 -6 2 -9 11 -8 9 0 22 -9 29 -22 6 -13 15 -22 20 -21 5 1 14 -8 20
-20 6 -12 15 -23 20 -24 5 -1 8 -5 7 -9 -2 -5 3 -8 11 -8 7 0 23 -13 36 -30
13 -16 30 -30 39 -30 10 0 28 -13 41 -30 14 -16 32 -29 40 -30 13 0 13 -1 0
-10 -10 -6 -11 -10 -2 -10 15 0 52 -36 52 -51 0 -5 5 -7 10 -4 6 3 10 2 10 -4
0 -5 8 -8 17 -7 10 2 22 -6 28 -17 5 -11 15 -19 20 -19 6 0 13 -8 17 -19 4
-11 13 -17 18 -14 6 4 19 -2 29 -14 10 -11 21 -18 25 -14 3 3 6 -1 6 -11 0 -9
5 -14 10 -11 6 3 10 1 10 -5 0 -6 5 -8 10 -5 6 3 10 2 10 -4 0 -5 10 -13 21
-16 17 -6 19 -9 8 -17 -11 -7 -9 -8 6 -6 11 1 30 -6 43 -17 12 -11 24 -18 25
-15 2 3 18 -9 37 -27 24 -23 37 -29 42 -20 7 11 12 3 9 -15 0 -5 6 -8 15 -8 8
0 12 -4 9 -10 -3 -6 5 -10 19 -10 13 0 26 -4 28 -9 2 -5 10 -11 18 -13 19 -4
40 -24 40 -37 0 -6 5 -11 10 -11 6 0 10 5 10 10 0 6 6 5 14 -2 8 -7 12 -16 10
-19 -2 -3 8 -5 21 -4 14 2 23 -2 22 -8 -1 -7 7 -12 18 -12 11 -1 19 -6 18 -12
-1 -6 6 -9 17 -6 11 3 20 0 20 -6 0 -6 7 -11 15 -11 8 0 15 -4 15 -8 0 -4 10
-8 22 -9 11 -1 24 -6 27 -12 4 -5 18 -13 34 -16 15 -4 25 -11 22 -15 -8 -13
22 -19 34 -7 8 8 11 8 11 -1 0 -7 7 -12 15 -12 8 0 15 -4 15 -10 0 -5 8 -6 17
-3 13 5 15 2 10 -12 -6 -15 -5 -16 8 -5 11 9 15 9 15 1 0 -7 4 -10 9 -7 5 3
12 -1 15 -9 5 -13 10 -14 27 -5 17 10 21 8 26 -10 4 -16 8 -18 14 -8 7 11 9
11 9 -1 0 -7 6 -11 14 -8 8 3 22 0 32 -7 9 -7 26 -11 36 -8 10 2 18 -1 18 -7
0 -7 5 -9 10 -6 6 3 10 -2 10 -12 0 -12 3 -14 8 -6 9 14 52 6 52 -9 0 -6 9 -8
20 -5 12 3 24 -1 30 -11 8 -14 9 -14 10 -2 0 12 3 12 11 -2 7 -14 15 -15 34
-8 23 9 29 6 26 -12 0 -4 18 -6 41 -6 23 0 44 -5 46 -11 2 -6 8 -9 13 -5 5 3
9 -1 9 -8 0 -9 3 -9 10 2 6 9 10 11 10 3 0 -7 7 -10 15 -7 8 4 21 2 28 -4 17
-13 67 -21 67 -10 0 5 8 4 19 -1 10 -6 22 -7 26 -3 5 4 5 2 2 -4 -9 -15 20
-27 29 -12 4 7 9 6 15 -3 8 -12 11 -11 19 1 5 8 10 10 10 4 0 -7 11 -9 26 -6
19 3 25 1 20 -7 -8 -13 2 -14 97 -12 37 1 67 -2 67 -6 0 -5 9 -14 21 -21 15
-9 19 -10 14 -2 -6 9 4 11 39 7 28 -4 46 -2 46 4 0 6 6 7 13 2 17 -10 97 -11
104 0 3 4 14 0 26 -10 11 -10 17 -12 12 -4 -6 11 1 12 39 8 32 -4 46 -2 46 6
0 8 3 8 8 2 9 -12 152 -14 152 -2 0 4 6 5 13 0 17 -10 97 -11 104 0 3 4 14 0
26 -10 11 -10 17 -12 12 -4 -6 10 1 12 33 8 23 -2 46 1 53 7 9 8 10 8 6 0 -4
-7 0 -14 8 -18 8 -3 14 0 12 7 -1 7 4 11 11 9 6 -1 12 6 13 15 0 11 3 13 6 6
3 -9 10 -10 23 -3 13 7 21 7 25 0 4 -6 10 -8 15 -5 5 3 12 1 15 -5 5 -8 11 -8
20 0 8 7 19 9 25 5 5 -3 10 0 10 7 0 9 3 9 10 -2 9 -13 10 -13 11 0 1 8 1 19
0 24 -1 5 5 4 13 -4 13 -10 16 -10 16 1 0 12 2 12 9 0 6 -10 10 -10 16 -1 6 9
10 9 16 -1 8 -12 11 -11 19 1 7 11 10 12 10 2 0 -10 4 -9 16 2 8 9 20 14 25
11 5 -4 9 -2 9 4 0 7 8 7 24 1 17 -6 26 -5 30 3 3 9 5 9 5 -1 1 -10 4 -10 15
0 8 7 11 18 8 23 -3 6 2 4 11 -4 14 -11 17 -11 17 0 0 11 3 11 11 -1 7 -10 12
-11 15 -4 3 7 14 10 24 7 13 -3 22 1 26 12 5 13 9 14 15 3 7 -10 9 -10 9 2 0
13 1 13 10 0 7 -11 10 -11 10 -2 0 10 5 10 20 2 11 -6 20 -7 19 -3 -4 22 4 29
31 27 17 -1 30 3 30 9 0 8 17 12 45 11 27 0 46 4 49 12 3 8 15 11 30 8 14 -2
28 1 32 7 5 8 3 9 -6 4 -8 -5 -11 -4 -7 2 4 6 22 10 41 8 19 -1 35 1 34 4 -3
26 3 33 17 21 13 -11 19 -7 17 11 -1 4 14 6 33 5 18 -1 32 1 29 3 -2 2 1 10 7
18 9 10 15 10 25 2 11 -9 18 -8 29 1 8 7 13 16 10 20 -2 4 7 6 20 4 16 -1 25
3 25 11 0 8 8 12 19 10 11 -2 22 3 25 11 3 8 12 11 22 7 13 -5 15 -3 9 7 -6
10 -2 12 19 8 20 -4 31 0 42 16 12 16 17 18 21 7 4 -11 10 -8 25 10 11 13 17
18 13 11 -6 -11 -3 -11 13 -1 12 7 18 17 15 23 -4 5 1 7 10 3 9 -3 23 0 31 8
8 8 20 15 26 15 6 0 13 7 16 15 4 8 11 12 18 9 6 -3 3 1 -6 9 -10 8 -18 20
-18 26 0 7 -4 9 -10 6 -5 -3 -10 2 -10 11 0 10 -3 15 -6 11 -8 -8 -34 18 -34
33 0 7 -7 10 -15 6 -8 -3 -14 -2 -14 2 3 21 -3 32 -18 32 -9 0 -13 3 -10 7 4
3 -3 11 -16 17 -12 6 -24 22 -25 35 -3 19 -6 21 -13 10 -7 -11 -9 -10 -9 5 0
11 -3 17 -6 13 -8 -8 -34 18 -34 33 0 6 -4 9 -8 6 -5 -3 -15 5 -23 16 -8 12
-22 28 -33 37 -45 39 -66 63 -61 72 4 5 -2 6 -11 2 -12 -4 -15 -3 -10 5 8 14
-23 61 -41 62 -7 0 -13 4 -13 10 0 5 -14 22 -30 37 -17 15 -28 33 -26 40 3 7
-1 13 -9 13 -8 0 -15 5 -15 11 0 6 -7 17 -15 25 -8 9 -15 12 -15 8 0 -16 -29
32 -30 48 0 9 -8 19 -18 22 -10 3 -18 16 -19 28 -1 12 -9 26 -18 30 -8 5 -12
14 -9 20 4 6 3 8 -3 5 -9 -5 -48 31 -46 43 2 11 -13 39 -22 42 -5 2 -9 11 -9
21 1 9 -5 17 -13 17 -7 0 -16 7 -19 15 -4 8 -11 12 -18 8 -7 -3 -6 -1 1 7 10
11 8 19 -10 39 -12 13 -16 21 -8 16 9 -5 12 -4 7 3 -4 7 -15 12 -24 13 -11 0
-13 2 -4 6 9 4 7 10 -7 22 -12 10 -18 21 -14 25 3 3 1 6 -6 6 -8 0 -11 7 -7
15 3 8 1 15 -4 15 -6 0 -10 7 -10 16 0 8 -4 13 -9 9 -9 -5 -27 32 -23 48 1 4
-5 7 -13 7 -9 0 -12 6 -9 15 4 8 -1 17 -9 21 -9 3 -14 11 -11 18 3 7 -2 19
-11 26 -8 7 -15 19 -15 28 0 8 -8 21 -17 29 -17 14 -17 14 1 8 15 -4 14 0 -8
20 -15 14 -24 30 -21 35 3 6 1 10 -6 10 -7 0 -10 3 -7 6 4 3 -2 14 -13 25 -11
11 -17 24 -14 29 11 18 -7 10 -25 -10 -11 -13 -21 -17 -25 -10 -3 5 -11 10
-16 10 -6 0 -7 -4 -4 -10 3 -5 3 -10 -2 -11 -42 -4 -70 -12 -78 -22 -5 -7 -21
-12 -35 -12 -14 0 -24 -5 -23 -10 1 -6 -17 -9 -44 -6 -32 2 -43 0 -39 -8 7
-11 -13 -15 -66 -11 -33 2 -70 -9 -64 -18 2 -4 -21 -6 -52 -5 -32 1 -63 -4
-71 -10 -12 -10 -13 -9 -6 2 6 11 4 13 -7 8 -9 -3 -21 0 -27 6 -8 8 -11 8 -11
-2 0 -7 -4 -10 -9 -6 -5 3 -16 -1 -24 -10 -9 -8 -24 -12 -38 -9 -13 3 -28 5
-34 5 -72 -8 -135 -4 -135 7 0 9 -13 11 -45 8 -25 -2 -42 0 -39 5 3 5 -1 6 -9
3 -31 -11 -97 -11 -108 2 -6 7 -18 13 -27 13 -33 1 -57 7 -79 19 -17 9 -23 10
-23 1 0 -8 -4 -8 -15 1 -12 10 -15 10 -15 -1 0 -11 -2 -11 -9 0 -5 8 -22 16
-37 18 -15 3 -33 12 -41 21 -9 12 -12 13 -13 3 0 -10 -3 -11 -14 -2 -11 9 -15
9 -19 -1 -4 -8 -6 -7 -6 5 -1 9 -5 18 -11 18 -5 1 -16 2 -22 3 -7 1 -12 6 -11
12 1 5 -11 9 -25 8 -36 -2 -53 6 -45 19 3 6 1 7 -6 3 -6 -4 -18 0 -26 8 -9 8
-23 12 -32 9 -11 -4 -14 -3 -9 5 6 10 -17 18 -27 10 -6 -6 -35 27 -30 35 2 4
-2 7 -11 7 -8 0 -17 6 -19 13 -4 9 -6 9 -6 -2 -1 -8 -9 -5 -22 10 -11 13 -18
18 -14 12 4 -9 1 -11 -9 -7 -9 3 -16 13 -16 21 0 8 -4 11 -10 8 -5 -3 -10 -1
-10 5 0 6 -4 8 -10 5 -5 -3 -10 -1 -10 5 0 6 -5 8 -10 5 -6 -3 -13 1 -16 9 -3
9 -13 16 -21 16 -8 0 -11 5 -7 12 5 7 2 9 -8 5 -10 -3 -23 3 -34 18 -10 13
-21 22 -26 19 -4 -3 -8 2 -8 10 0 9 -5 16 -11 16 -5 0 -7 5 -4 10 4 6 3 10 -2
9 -19 -3 -56 1 -51 6 7 7 -80 95 -93 95 -9 0 -13 15 -10 34 1 5 -5 4 -13 -3
-13 -11 -15 -9 -11 9 2 13 2 20 -2 17 -3 -4 -14 3 -24 14 -10 12 -23 18 -29
14 -9 -6 -9 -2 -1 14 10 17 9 21 -4 21 -9 0 -14 3 -12 8 2 4 -10 21 -26 37
-16 17 -26 24 -22 16 5 -9 4 -12 -3 -7 -7 4 -12 16 -12 27 0 22 -24 52 -34 42
-3 -4 -6 3 -6 14 0 11 -12 33 -26 48 -14 15 -23 34 -20 42 3 8 1 11 -4 8 -6
-3 -10 1 -10 10 0 9 -4 14 -8 11 -4 -2 -14 4 -21 16 -10 16 -10 19 1 13 7 -3
5 0 -6 9 -10 8 -15 19 -11 25 3 6 1 11 -4 11 -6 0 -11 6 -11 14 0 8 -6 17 -12
19 -10 4 -9 6 1 6 10 1 7 7 -7 20 -12 10 -19 21 -15 24 3 4 -2 10 -11 13 -14
5 -15 9 -4 15 10 7 10 9 1 9 -7 0 -13 7 -13 15 0 8 -4 15 -9 15 -5 0 -7 14 -6
31 2 20 -1 29 -10 26 -6 -3 -12 1 -12 9 0 7 5 10 10 7 6 -3 7 -1 3 5 -4 7 -13
12 -20 12 -9 0 -12 12 -10 35 1 24 -2 35 -11 35 -9 0 -12 10 -10 30 2 17 1 29
-3 26 -7 -4 -12 21 -15 81 -1 17 -6 31 -12 30 -5 -1 -10 15 -10 36 0 23 -5 37
-12 37 -7 0 -13 5 -13 11 0 5 6 7 13 3 8 -5 8 -3 -2 9 -7 9 -11 30 -9 47 3 17
0 30 -6 30 -7 0 -7 3 -1 8 9 6 10 15 6 60 -1 6 -7 12 -14 12 -7 0 -13 9 -13
20 0 11 4 20 7 20 4 0 4 14 -1 30 -5 17 -6 30 -2 30 8 0 7 113 -2 135 -3 8 -1
15 4 15 5 0 5 13 0 30 -6 21 -5 30 3 30 7 0 6 4 -3 10 -12 8 -12 10 -1 10 10
0 11 3 2 14 -9 10 -8 15 3 19 16 7 26 75 11 81 -6 3 -6 5 1 5 8 1 9 12 4 35
-7 31 -5 34 12 31 16 -4 18 -2 8 10 -7 9 -8 15 -3 15 11 0 8 54 -3 72 -4 6 -3
9 2 6 5 -3 17 3 27 14 16 17 16 18 0 18 -15 0 -16 2 -3 10 8 5 11 12 8 16 -4
4 -3 15 2 25 6 10 11 29 12 43 1 13 6 22 10 20 8 -5 12 17 9 44 -1 6 3 12 10
12 6 0 9 6 6 14 -3 8 1 17 10 20 12 5 13 9 4 20 -10 11 -9 16 4 24 9 5 16 12
16 15 -3 20 0 28 8 23 5 -4 8 2 7 11 -2 10 2 21 8 25 8 5 7 8 -2 8 -7 0 -10 5
-7 10 4 6 11 7 17 4 7 -4 8 -2 4 4 -4 7 -1 12 6 12 10 0 9 3 -2 10 -16 10 -15
12 15 28 13 8 15 11 6 12 -11 0 -10 4 5 16 10 8 12 12 4 8 -8 -4 -2 5 13 20
17 15 26 33 23 41 -3 8 0 14 7 12 7 -1 12 5 12 13 0 16 23 44 37 46 4 1 11 2
14 3 4 0 1 7 -5 15 -10 12 -8 17 8 26 12 6 21 16 21 22 0 6 8 17 18 25 9 8 11
11 4 8 -11 -6 -11 -3 0 14 7 12 19 21 26 21 7 0 10 5 7 11 -8 13 30 51 41 41
4 -4 4 -2 1 4 -8 14 17 37 28 26 5 -4 6 -2 2 3 -3 6 8 21 24 34 25 20 27 26
17 39 -7 9 -8 13 -3 10 12 -6 66 48 57 57 -4 3 1 3 10 0 12 -5 26 3 44 22 14
15 30 27 35 25 5 -1 8 2 7 6 -4 13 55 72 72 72 18 0 50 34 50 53 0 8 4 7 10
-3 6 -10 10 -11 10 -2 0 6 6 12 13 12 7 0 18 9 25 21 7 11 18 18 25 16 7 -2
22 7 35 20 12 13 27 21 32 18 6 -3 10 -1 10 5 0 6 5 8 12 4 8 -5 9 -2 5 9 -3
9 -1 19 5 23 6 4 8 3 4 -4 -4 -7 1 -10 14 -9 11 1 20 7 20 14 0 7 6 10 14 7 7
-3 21 2 30 12 9 9 20 14 23 10 3 -3 14 4 24 16 11 12 19 16 19 8 0 -8 8 -4 19
9 12 14 21 17 23 10 3 -9 12 -7 30 5 15 10 31 18 35 19 4 1 7 6 5 10 -1 5 8 8
20 7 40 -4 48 0 48 18 0 9 4 13 8 7 10 -14 32 -17 32 -4 0 8 4 8 14 0 11 -10
17 -8 29 9 11 15 16 18 20 8 3 -10 7 -10 17 -1 9 8 19 9 32 2 10 -5 18 -6 17
-2 -3 20 3 29 21 29 11 0 20 -4 20 -9 0 -5 6 -5 13 2 10 8 17 7 25 -1 9 -9 12
-9 12 1 0 7 5 9 10 6 6 -3 18 1 27 10 12 12 18 13 23 5 5 -9 9 -9 14 -1 5 7
13 8 25 2 9 -5 23 -6 31 -1 7 4 24 4 37 -1 16 -6 22 -5 18 1 -3 6 -2 10 4 10
5 0 13 -5 16 -10 4 -6 13 -7 23 -2 15 7 68 8 82 2 3 -1 10 -1 15 0 32 7 75 6
75 -3 0 -5 7 -4 15 3 11 9 18 8 36 -9 17 -16 26 -18 36 -10 7 6 13 7 13 2 0
-10 46 -10 57 0 3 4 13 1 21 -6 13 -10 15 -9 8 3 -4 9 -2 8 7 -2 8 -10 17 -15
20 -11 4 3 7 2 7 -4 0 -12 32 -12 41 0 3 4 14 -1 25 -10 20 -19 64 -26 64 -11
0 5 6 3 14 -4 8 -7 13 -15 11 -18 -2 -3 17 -5 41 -4 32 1 44 -3 44 -13 0 -8 6
-13 13 -11 6 1 22 -3 34 -10 12 -7 26 -11 30 -10 4 1 17 -3 28 -9 21 -12 26
-13 51 -13 10 0 14 -6 11 -15 -5 -12 -2 -12 20 -2 14 6 20 13 14 15 -8 3 -6 9
6 19 11 9 12 12 3 8 -8 -4 -4 3 10 15 14 12 19 19 13 15 -9 -4 -11 -1 -7 10 4
9 13 14 22 10 12 -4 12 -3 3 9 -9 11 -9 16 -1 21 7 4 9 16 7 27 -5 16 -3 17
11 6 10 -8 13 -9 9 -1 -4 6 -2 15 4 18 5 4 8 13 5 21 -3 8 1 14 10 14 8 0 12
5 9 10 -3 6 1 13 9 16 9 3 13 10 10 15 -3 5 0 9 5 9 6 0 11 9 11 20 0 11 5 20
10 20 6 0 10 7 10 15 0 9 7 18 16 22 8 3 13 12 10 19 -3 8 1 14 9 14 8 0 12 6
9 13 -5 13 30 57 45 57 5 0 6 12 3 26 -3 18 -1 25 6 20 10 -6 36 27 37 47 0 5
8 14 17 21 10 7 15 15 12 19 -3 3 4 8 15 12 12 3 21 14 21 23 0 9 10 28 21 42
11 14 17 19 13 11 -5 -10 -3 -12 5 -7 9 6 9 11 0 22 -9 11 -8 14 3 14 8 0 21
11 28 25 7 13 17 22 22 19 4 -3 8 2 8 11 0 8 7 18 15 21 8 4 15 13 15 21 0 17
25 45 33 36 4 -3 12 6 18 20 7 15 16 24 20 21 5 -3 9 2 9 10 0 9 5 16 11 16 6
0 9 7 6 15 -4 9 5 22 24 35 16 12 27 26 23 31 -3 5 -2 9 3 8 19 -3 34 2 29 9
-3 5 4 14 14 22 10 8 17 17 14 22 -3 4 3 5 13 1 10 -3 15 -3 11 1 -8 9 84 105
95 99 4 -2 7 3 7 11 0 9 8 16 17 16 9 0 14 3 10 6 -8 8 18 34 33 34 6 0 9 3 7
8 -7 10 90 102 99 94 4 -4 4 1 1 11 -5 14 -3 17 11 13 11 -4 32 9 61 39 35 35
40 44 23 40 -15 -2 -23 3 -28 17 -5 16 -8 18 -15 7 -7 -12 -9 -11 -9 1 0 13
-1 13 -10 0 -8 -12 -10 -10 -10 8 0 13 -4 21 -9 17 -5 -3 -21 0 -36 7 -19 8
-22 14 -13 21 9 6 4 7 -14 4 -15 -2 -25 0 -22 4 3 5 -2 9 -11 9 -9 0 -13 5
-10 10 4 6 3 10 -2 9 -19 -3 -34 2 -29 10 3 5 0 9 -7 8 -34 -1 -48 4 -41 15 5
8 0 9 -14 6 -13 -4 -22 -1 -22 6 0 6 -14 12 -32 13 -18 0 -37 9 -45 19 -8 11
-13 13 -13 5 0 -7 -9 -3 -21 10 -11 13 -18 18 -14 12 3 -7 1 -13 -4 -13 -6 0
-11 4 -11 9 0 9 -31 23 -55 26 -21 2 -65 25 -65 33 0 5 -7 9 -15 9 -8 0 -15
-5 -15 -11 0 -5 -6 -2 -14 9 -8 11 -25 18 -45 17 -17 0 -29 3 -26 8 3 4 -2 11
-11 14 -23 9 -36 7 -29 -4 3 -6 -1 -7 -9 -4 -9 3 -16 10 -16 15 0 5 -7 9 -16
9 -9 0 -12 5 -8 12 5 7 3 8 -7 2 -21 -13 -39 -13 -36 -1 1 7 -9 12 -23 13 -50
1 -61 4 -55 14 3 6 -1 7 -9 4 -10 -4 -16 -1 -16 7 0 11 -3 11 -10 -1 -8 -12
-12 -12 -19 -2 -4 7 -14 14 -22 15 -8 2 -19 6 -26 10 -6 4 -14 3 -18 -3 -3 -5
-11 -10 -16 -10 -6 0 -8 4 -5 9 4 5 -3 7 -14 4 -11 -3 -20 -1 -20 5 0 5 -7 13
-16 16 -8 3 -12 2 -9 -4 9 -14 -9 -12 -23 2 -9 9 -12 9 -12 0 0 -8 -9 -5 -22
8 -16 15 -24 17 -30 8 -6 -10 -8 -10 -8 1 0 11 -3 11 -15 1 -11 -9 -15 -9 -15
-1 0 8 -6 9 -18 2 -19 -10 -57 10 -44 24 4 4 -3 2 -15 -4 -13 -6 -23 -8 -23
-3 0 5 -7 9 -15 9 -8 0 -15 -5 -15 -11 0 -6 -4 -6 -12 2 -7 7 -17 8 -30 1 -12
-6 -18 -6 -18 0 0 6 -10 15 -21 22 -17 9 -20 8 -14 -3 6 -10 5 -10 -5 -1 -9 8
-19 9 -31 3 -11 -7 -20 -7 -24 0 -3 5 -11 10 -16 10 -6 0 -7 -4 -4 -10 4 -6
-2 -7 -17 -2 -29 9 -59 9 -76 -1 -6 -5 -12 -4 -12 2 0 6 -9 11 -21 11 -11 0
-18 4 -15 8 6 11 -34 9 -51 -1 -6 -4 -14 -4 -17 1 -6 10 -56 9 -73 -1 -6 -4
-14 -3 -18 3 -4 6 -12 7 -18 3 -21 -13 -48 -11 -43 4 7 16 3 16 -12 1z"/>
<path d="M13701 13941 c-7 -5 -22 -6 -32 -4 -11 3 -26 -1 -35 -8 -20 -16 -46
-18 -56 -4 -5 6 -8 5 -8 -3 0 -10 -5 -10 -21 -1 -16 8 -20 8 -14 -1 6 -9 2 -9
-14 -1 -15 8 -21 9 -21 1 0 -6 -5 -8 -12 -4 -16 10 -58 11 -58 2 0 -4 -7 -8
-15 -8 -8 0 -15 -8 -15 -17 -1 -17 -1 -17 -11 0 -6 9 -15 15 -20 11 -18 -11
-79 -12 -79 -1 0 5 -8 1 -18 -11 -14 -16 -22 -18 -36 -10 -13 7 -17 7 -12 0 7
-12 -32 -10 -53 3 -10 6 -12 4 -6 -5 6 -10 4 -12 -8 -7 -9 3 -17 1 -19 -5 -2
-6 -23 -12 -46 -14 -31 -2 -41 0 -37 9 4 7 -3 1 -14 -12 -13 -14 -21 -18 -21
-10 0 10 -2 11 -8 2 -4 -6 -20 -10 -34 -9 -15 2 -25 0 -23 -5 7 -11 -24 -19
-57 -15 -16 2 -29 -2 -32 -11 -3 -8 -10 -11 -16 -8 -5 3 -10 0 -10 -7 0 -11
-2 -11 -9 0 -6 10 -10 10 -21 -3 -8 -10 -23 -14 -41 -11 -18 3 -28 0 -26 -7 1
-7 -13 -13 -30 -15 -18 -2 -33 -8 -33 -14 0 -6 -9 -8 -20 -5 -11 3 -20 1 -20
-4 0 -4 -7 -6 -15 -3 -8 4 -15 1 -15 -5 0 -6 -11 -11 -25 -11 -14 0 -25 -5
-25 -11 0 -6 -6 -9 -12 -7 -7 3 -19 -1 -26 -9 -8 -7 -18 -11 -23 -8 -5 4 -9 2
-9 -3 0 -6 -7 -12 -14 -15 -11 -4 -13 -1 -10 11 5 16 5 16 -5 0 -6 -9 -25 -19
-41 -23 -17 -4 -28 -11 -24 -16 3 -5 -4 -9 -15 -9 -12 0 -21 -4 -21 -9 0 -5
-13 -7 -30 -6 -28 2 -35 -5 -31 -29 1 -5 -5 -4 -13 3 -13 11 -17 10 -22 -3 -3
-9 -10 -13 -15 -10 -5 3 -16 -2 -25 -10 -9 -9 -20 -14 -25 -11 -5 4 -9 1 -9
-5 0 -6 -4 -8 -10 -5 -5 3 -10 1 -10 -6 0 -6 -8 -9 -20 -6 -11 3 -18 2 -16 -1
3 -7 -39 -53 -49 -52 -22 1 -25 -1 -20 -10 4 -7 -3 -9 -20 -6 -20 4 -25 1 -21
-9 3 -10 -2 -12 -20 -9 -13 2 -24 1 -23 -3 3 -20 -2 -34 -10 -29 -5 3 -12 -1
-15 -10 -5 -13 -9 -14 -21 -4 -12 10 -15 9 -15 -8 0 -15 -5 -20 -15 -16 -8 4
-15 2 -15 -4 0 -5 -9 -12 -21 -15 -13 -4 -18 -10 -13 -18 4 -8 3 -10 -4 -5 -7
4 -12 3 -12 -3 0 -5 -9 -8 -20 -6 -11 2 -19 1 -16 -3 5 -9 -20 -32 -28 -25 -3
4 -6 -1 -6 -9 0 -9 -8 -15 -17 -14 -10 0 -17 -5 -15 -12 1 -6 -4 -11 -10 -10
-7 2 -12 -3 -10 -10 1 -8 -2 -11 -9 -6 -6 3 -15 0 -20 -7 -4 -8 -13 -15 -19
-15 -5 -1 -15 -2 -21 -3 -5 0 -8 -4 -6 -8 6 -12 -39 -50 -56 -47 -9 1 -23 -7
-33 -17 -9 -10 -13 -19 -9 -19 5 0 0 -6 -10 -14 -11 -8 -24 -12 -30 -8 -5 3
-4 -2 4 -12 8 -9 10 -16 5 -15 -20 3 -35 -2 -29 -10 3 -5 -4 -12 -15 -16 -11
-4 -17 -11 -14 -17 4 -6 2 -8 -3 -5 -16 10 -108 -65 -96 -77 4 -3 1 -6 -6 -6
-18 0 -103 -89 -96 -100 3 -6 0 -7 -8 -4 -8 3 -24 -8 -38 -26 -13 -18 -31 -39
-39 -48 -8 -8 -14 -18 -13 -21 0 -3 -3 -13 -8 -21 -4 -8 -9 -11 -9 -5 0 5 -7
-1 -16 -13 -8 -12 -20 -19 -26 -16 -6 4 -8 3 -5 -3 4 -6 -1 -19 -9 -29 -9 -10
-12 -13 -8 -5 5 9 3 12 -5 7 -6 -4 -11 -13 -10 -19 3 -25 -1 -38 -11 -32 -5 3
-10 -1 -10 -10 0 -8 -10 -20 -22 -25 -13 -5 -19 -9 -14 -9 6 -1 1 -7 -10 -15
-10 -8 -20 -19 -20 -25 -1 -6 -2 -16 -3 -22 0 -5 -5 -8 -9 -5 -9 5 -48 -54
-44 -66 1 -5 -5 -8 -15 -8 -9 0 -14 -3 -10 -6 3 -4 -1 -13 -9 -21 -8 -8 -12
-18 -9 -23 3 -4 -2 -10 -10 -14 -8 -3 -15 -11 -15 -18 0 -8 -8 -21 -17 -30
-29 -27 -41 -44 -45 -64 -2 -10 -9 -18 -16 -17 -6 2 -9 -4 -5 -13 3 -9 -3 -24
-16 -35 -11 -11 -21 -26 -21 -34 0 -7 -5 -15 -11 -17 -5 -2 -11 -12 -13 -21
-1 -10 -9 -23 -17 -28 -11 -7 -11 -9 -1 -9 10 0 10 -4 -2 -16 -9 -8 -16 -22
-16 -30 0 -8 -5 -14 -11 -14 -5 0 -7 -4 -4 -10 3 -5 2 -10 -4 -10 -6 0 -7 -7
-4 -17 4 -11 3 -14 -5 -9 -11 6 -17 -5 -13 -26 0 -5 -4 -8 -10 -8 -5 0 -7 -4
-4 -10 3 -5 1 -10 -5 -10 -6 0 -8 -4 -5 -10 3 -5 -3 -17 -14 -26 -10 -9 -17
-23 -14 -30 3 -8 0 -14 -7 -14 -6 0 -9 -4 -6 -9 3 -4 -3 -16 -14 -26 -14 -12
-18 -25 -14 -41 4 -16 2 -24 -6 -24 -7 0 -10 -7 -6 -15 3 -8 1 -15 -5 -15 -6
0 -8 -4 -5 -9 3 -5 -1 -12 -10 -15 -8 -3 -13 -10 -9 -15 3 -5 1 -12 -4 -16 -5
-3 -8 -14 -6 -25 2 -11 -1 -20 -7 -20 -5 0 -8 -7 -4 -15 3 -8 1 -15 -4 -15 -6
0 -9 -3 -9 -7 4 -22 -2 -44 -10 -39 -14 9 -20 -31 -7 -45 8 -9 8 -10 -3 -4
-11 6 -13 4 -8 -8 3 -9 1 -17 -4 -19 -6 -2 -11 -20 -12 -40 -1 -20 -6 -36 -12
-35 -5 1 -10 -10 -11 -25 -1 -15 -6 -33 -12 -41 -9 -10 -8 -17 1 -26 9 -10 8
-11 -8 -5 -18 7 -18 6 -6 -9 11 -14 11 -17 0 -17 -11 0 -11 -2 1 -10 14 -9 7
-14 -13 -11 -5 1 -7 -23 -5 -54 2 -39 -1 -55 -9 -55 -9 0 -13 -17 -13 -50 0
-29 -5 -50 -11 -50 -5 0 -8 -4 -5 -9 4 -5 0 -12 -6 -14 -10 -4 -9 -8 2 -16 13
-10 13 -11 0 -11 -12 0 -12 -2 -1 -9 7 -5 9 -11 4 -14 -5 -4 -8 -21 -6 -39 3
-25 2 -29 -6 -18 -9 12 -11 11 -11 -8 0 -16 -4 -21 -12 -16 -9 6 -9 3 0 -9 8
-9 11 -20 8 -26 -3 -5 0 -12 6 -14 7 -3 9 -6 3 -6 -5 -1 -10 -23 -10 -50 0
-30 -3 -47 -10 -45 -12 5 -12 -77 0 -97 5 -7 4 -10 -3 -6 -11 7 -9 -93 2 -112
4 -5 1 -13 -5 -17 -8 -5 -9 -3 -4 6 5 9 4 11 -4 6 -7 -5 -9 -12 -3 -19 5 -7 8
-43 8 -82 -1 -38 2 -78 7 -89 6 -12 5 -16 -1 -12 -11 7 -8 -136 3 -155 5 -7 4
-10 -3 -6 -12 8 -9 -94 4 -114 4 -8 3 -9 -5 -5 -8 5 -10 -6 -6 -41 4 -26 10
-49 16 -51 5 -2 9 -8 9 -13 0 -6 -6 -7 -12 -3 -9 6 -9 3 0 -9 8 -9 11 -21 7
-27 -3 -5 0 -10 7 -10 8 0 9 -3 3 -8 -16 -11 -16 -92 -1 -92 10 0 13 -18 14
-62 0 -46 4 -65 17 -74 10 -8 12 -14 5 -19 -5 -3 -7 -12 -3 -18 10 -17 11 -47
1 -47 -5 0 -6 -5 -3 -10 4 -6 11 -7 17 -4 7 4 9 -9 7 -39 -3 -36 -1 -43 9 -35
9 8 11 7 6 -7 -4 -10 -1 -21 7 -26 12 -7 12 -9 -1 -9 -13 0 -13 -1 0 -10 13
-9 13 -11 0 -20 -13 -9 -13 -10 0 -10 15 0 20 -20 23 -82 1 -10 7 -18 13 -18
7 0 11 -11 9 -27 -1 -15 3 -33 10 -40 7 -7 11 -22 8 -34 -4 -15 -3 -20 5 -15
8 5 13 -1 14 -16 0 -13 2 -29 2 -35 1 -7 9 -22 18 -32 12 -14 14 -22 6 -27 -7
-5 -5 -11 6 -20 10 -7 15 -17 12 -23 -4 -5 2 -14 11 -20 10 -6 14 -11 8 -11
-5 0 -3 -5 5 -10 10 -7 11 -10 2 -10 -10 0 -10 -4 0 -22 7 -13 18 -26 23 -30
6 -5 4 -8 -5 -8 -9 -1 -5 -5 8 -10 19 -8 21 -13 13 -28 -8 -15 -5 -24 10 -41
12 -12 18 -29 15 -38 -4 -10 -2 -14 7 -10 8 3 14 -3 15 -16 0 -12 6 -23 11
-25 5 -2 7 -10 4 -18 -3 -7 2 -17 11 -20 9 -3 15 -11 14 -18 -3 -20 25 -66 36
-59 6 3 8 3 4 -2 -4 -4 -2 -15 5 -23 9 -13 9 -14 0 -8 -7 4 -13 2 -13 -3 0 -6
7 -11 16 -11 11 0 15 -6 11 -20 -3 -13 0 -20 10 -20 8 0 11 -4 8 -10 -3 -5 1
-10 9 -10 10 0 16 -9 16 -25 0 -14 3 -24 8 -24 18 3 26 -2 14 -10 -10 -6 -6
-15 17 -36 16 -16 28 -32 25 -37 -3 -4 6 -20 20 -34 14 -15 22 -33 18 -42 -3
-10 -1 -13 6 -8 7 4 13 2 13 -3 1 -6 2 -16 3 -22 0 -7 10 -15 21 -20 11 -4 17
-8 13 -8 -5 -1 1 -10 13 -22 12 -12 18 -27 14 -37 -3 -9 -3 -13 1 -10 7 8 74
-60 71 -72 -3 -10 50 -59 57 -53 2 3 2 -4 -1 -16 -4 -16 -1 -21 13 -21 16 0
17 -2 4 -10 -13 -8 -13 -10 2 -10 9 0 20 -9 23 -20 4 -11 10 -18 15 -15 5 3
14 -4 20 -15 6 -11 15 -18 21 -15 5 4 8 1 7 -7 -2 -7 3 -12 11 -10 9 2 11 -3
7 -13 -3 -9 3 -23 14 -32 10 -9 17 -20 14 -25 -3 -4 -1 -8 4 -8 14 0 72 -56
72 -70 0 -6 5 -8 10 -5 6 3 10 -1 10 -9 0 -9 5 -16 11 -16 7 0 25 -16 42 -35
16 -19 33 -32 38 -29 5 3 9 -4 9 -15 0 -19 10 -26 33 -22 4 0 7 -4 7 -11 0 -6
3 -9 6 -5 3 3 24 -10 45 -30 22 -20 37 -39 34 -41 -8 -9 48 -42 58 -35 6 3 7
1 3 -5 -7 -11 7 -17 29 -12 5 1 7 -2 3 -6 -4 -4 5 -20 21 -35 16 -15 26 -30
23 -34 -4 -3 1 -3 10 0 10 4 24 -1 36 -13 11 -11 23 -18 26 -14 3 3 6 -2 6
-11 0 -9 12 -18 31 -22 23 -5 28 -9 18 -16 -11 -7 -10 -9 4 -9 10 0 16 -4 13
-9 -3 -4 4 -8 17 -7 13 1 21 -4 19 -12 -1 -6 4 -11 10 -10 7 2 12 -3 10 -10
-1 -8 2 -11 8 -7 5 3 10 0 10 -7 0 -9 3 -9 10 2 8 12 10 12 10 1 0 -8 3 -12 6
-8 8 8 34 -18 34 -33 0 -6 5 -8 10 -5 6 3 10 0 10 -7 0 -10 2 -10 9 1 5 8 10
9 12 3 2 -6 11 -12 19 -14 20 -4 39 -21 33 -30 -4 -8 1 -10 30 -12 18 -2 36
-20 29 -31 -3 -5 2 -4 11 4 15 12 17 11 17 -10 0 -19 2 -21 10 -9 8 12 12 13
19 2 4 -8 12 -14 17 -15 5 -1 8 -6 6 -11 -2 -5 4 -4 12 4 9 7 16 8 16 4 0 -5
9 -15 21 -22 17 -11 20 -11 14 0 -3 7 0 5 8 -4 8 -10 17 -15 20 -11 4 3 7 1 7
-6 0 -7 5 -9 10 -6 6 3 10 -1 10 -11 0 -13 3 -14 15 -4 10 9 15 9 15 1 0 -6 8
-11 18 -11 10 0 24 -9 31 -19 8 -11 20 -17 26 -15 7 3 19 -1 26 -8 8 -7 23
-14 34 -14 11 0 19 -5 18 -11 -1 -5 9 -9 22 -8 13 2 26 -3 29 -11 3 -9 15 -13
30 -10 14 2 27 -1 29 -8 3 -6 17 -12 32 -14 15 -1 34 -10 42 -20 8 -9 12 -11
8 -4 -5 10 0 11 22 6 15 -4 31 -12 34 -17 4 -5 16 -7 28 -4 12 3 24 0 28 -5 4
-7 1 -8 -7 -3 -9 6 -11 4 -6 -4 5 -7 14 -10 22 -7 8 3 14 0 14 -7 0 -8 4 -6
10 3 7 11 10 11 10 2 0 -7 5 -10 10 -7 6 3 10 1 10 -4 0 -6 8 -11 18 -11 10 0
22 -3 26 -7 10 -11 37 -12 30 -2 -3 5 -1 9 4 9 6 0 13 -7 16 -16 3 -8 10 -12
16 -9 13 8 12 60 12 -535 0 -365 4 -519 12 -529 8 -11 8 -13 0 -8 -9 5 -12
-39 -10 -168 0 -96 5 -175 10 -174 5 0 13 -5 17 -13 7 -10 9 -10 9 0 0 9 5 10
19 2 14 -7 22 -7 26 0 5 8 11 8 19 1 7 -6 15 -8 18 -6 12 12 48 13 48 2 0 -8
3 -8 9 1 4 8 12 14 16 14 4 0 12 -6 16 -14 7 -10 9 -10 9 0 0 6 7 12 16 12 8
0 12 -5 8 -11 -4 -8 0 -8 15 0 16 9 21 9 21 -1 0 -8 3 -9 8 -3 10 14 52 15 52
1 0 -6 4 -6 9 2 4 8 12 14 16 14 4 0 12 -6 16 -14 8 -11 10 -11 18 0 4 8 12
14 16 14 4 0 12 -6 16 -14 5 -7 9 -8 9 -2 0 5 11 10 25 10 14 0 25 -5 25 -10
0 -6 4 -5 9 2 4 8 12 14 16 14 4 0 12 -6 16 -14 7 -10 9 -10 9 0 0 6 7 12 16
12 8 0 12 -5 8 -11 -4 -8 0 -8 15 0 16 9 21 9 21 -1 0 -8 3 -9 8 -3 10 14 52
15 52 1 0 -6 4 -6 9 2 4 8 12 14 16 14 4 0 12 -6 16 -14 8 -11 10 -11 18 0 4
8 12 14 16 14 4 0 12 -6 16 -14 5 -7 9 -8 9 -2 0 5 11 10 25 10 14 0 25 -5 25
-10 0 -6 4 -5 9 2 4 8 12 14 16 14 4 0 12 -6 16 -14 7 -10 9 -10 9 0 0 6 7 12
16 12 8 0 12 -5 8 -11 -4 -8 0 -8 15 0 16 9 21 9 21 -1 0 -8 3 -9 8 -3 10 14
52 15 52 1 0 -6 4 -6 9 2 4 8 12 14 16 14 4 0 12 -6 16 -14 8 -11 10 -11 18 0
4 8 12 14 16 14 4 0 12 -6 16 -14 5 -7 9 -8 9 -3 0 6 11 12 26 13 16 1 23 -2
18 -9 -4 -8 -1 -8 14 0 12 6 23 8 26 3 4 -6 56 -8 64 -2 8 7 28 4 34 -5 5 -6
8 -5 8 4 0 10 3 11 14 2 10 -9 16 -9 21 -1 5 8 10 8 20 0 9 -8 15 -8 20 0 3 5
11 10 16 10 6 0 7 -5 3 -11 -4 -8 0 -8 15 0 16 9 21 9 21 -1 0 -8 3 -9 8 -3
10 14 52 15 52 1 0 -6 4 -6 9 2 4 8 12 14 16 14 4 0 12 -6 16 -14 8 -11 10
-11 18 0 4 8 12 14 16 14 4 0 12 -6 16 -14 5 -7 9 -8 9 -3 0 6 11 12 26 13 16
1 23 -2 18 -9 -4 -8 -1 -8 14 0 12 6 23 8 26 3 4 -6 61 -8 61 -2 0 1 8 3 18 5
9 2 17 -2 17 -8 0 -8 3 -7 9 2 6 9 10 10 16 2 5 -9 11 -9 22 1 18 15 22 15 35
-4 7 -9 8 -8 6 7 -1 11 1 26 5 33 5 6 4 12 -1 12 -12 0 -10 63 3 72 6 5 6 8
-2 8 -14 0 -13 40 2 40 5 0 4 4 -3 9 -8 4 -14 12 -14 16 0 4 6 12 14 16 11 7
11 9 -1 9 -10 0 -11 3 -2 14 9 11 9 15 0 18 -9 3 -9 9 -1 24 8 15 8 24 0 32
-8 8 -8 15 0 25 7 8 9 17 5 21 -11 11 -9 76 2 76 6 0 6 3 0 8 -12 8 -13 27 -3
37 4 4 3 16 -3 26 -7 14 -6 19 3 19 8 0 9 3 3 8 -14 9 -16 62 -3 62 6 0 6 6
-1 14 -8 10 -9 16 -1 21 7 4 7 12 0 25 -7 13 -7 21 0 25 6 4 7 12 3 18 -11 18
-10 67 2 67 5 0 4 4 -4 9 -10 6 -11 13 -2 29 8 14 8 23 1 27 -8 5 -8 11 -1 19
6 7 8 16 4 20 -11 11 -10 46 1 46 7 0 8 3 1 8 -12 8 -13 27 -3 37 4 4 3 16 -3
26 -7 14 -6 19 3 19 9 0 10 3 2 8 -14 9 -13 54 1 64 6 5 6 8 -2 8 -12 0 -12
24 0 36 3 4 2 15 -4 25 -7 14 -6 19 3 19 8 0 9 3 3 8 -14 9 -16 62 -3 62 6 0
6 6 -1 14 -8 10 -9 16 -1 21 7 4 7 12 0 25 -7 13 -7 21 0 25 6 4 7 12 3 18
-11 18 -10 67 2 67 5 0 3 4 -5 10 -12 8 -12 10 3 16 9 3 27 4 38 1 15 -4 19
-2 15 8 -3 9 1 12 15 10 10 -2 19 0 19 5 0 5 13 5 29 0 24 -7 29 -5 24 6 -4
10 4 14 32 14 20 0 34 4 31 9 -8 12 40 20 53 9 6 -4 9 -5 7 -2 -9 12 19 31 37
26 12 -3 23 2 28 11 6 10 18 14 34 11 16 -3 27 1 31 9 3 8 16 13 30 11 13 -1
24 2 24 7 0 6 5 7 10 4 6 -3 10 -1 10 5 0 6 5 8 10 5 6 -3 10 -1 10 6 0 7 3 9
7 6 3 -4 12 1 19 11 7 9 14 12 14 5 0 -6 8 -10 18 -8 9 1 16 8 14 15 -1 6 3 8
9 4 6 -3 14 -3 18 2 9 14 54 37 47 25 -4 -7 -1 -8 8 -5 9 3 13 10 10 15 -5 8
9 13 29 10 4 0 7 4 7 10 0 6 7 9 15 5 8 -3 15 0 15 6 0 7 5 6 15 -2 12 -10 15
-10 15 2 0 19 33 45 53 42 10 -1 17 5 17 14 0 15 2 15 10 2 8 -13 10 -12 15 1
3 9 24 22 46 29 21 7 39 17 39 22 0 5 5 6 10 3 6 -3 10 -2 10 3 0 6 11 13 25
16 14 4 23 11 20 16 -6 10 -1 12 28 14 6 1 22 11 33 24 12 12 29 22 38 22 9 0
16 6 16 14 0 8 5 18 12 22 7 5 9 2 4 -7 -4 -8 -1 -6 7 3 8 10 17 15 21 11 3
-4 14 3 22 16 9 13 22 20 31 17 8 -3 12 -2 9 3 -3 4 6 13 20 20 14 6 22 16 19
21 -9 14 8 12 24 -2 8 -7 11 -8 8 -3 -5 10 70 89 87 91 16 2 45 28 40 36 -3 4
3 5 12 1 10 -3 15 -2 12 3 -3 5 0 15 8 22 8 7 14 9 14 5 0 -4 6 3 13 17 8 16
21 25 35 24 12 -1 19 3 16 7 -3 5 3 9 12 9 10 0 15 3 11 6 -7 7 29 44 43 44 5
0 9 4 7 9 -3 11 101 110 108 103 3 -3 5 3 5 12 0 12 5 16 16 12 8 -3 12 -2 9
3 -6 11 40 61 55 61 6 0 10 7 10 16 0 9 5 12 12 8 8 -5 9 -2 5 9 -3 9 -3 16 1
16 19 -3 33 2 28 10 -3 5 1 12 10 15 9 3 14 12 11 20 -3 7 3 19 13 26 11 8 17
17 14 22 -3 4 3 5 12 1 11 -4 15 -2 11 4 -4 6 0 14 9 17 8 3 12 10 9 16 -4 6
1 7 11 3 12 -4 15 -3 10 5 -4 7 -2 12 4 12 6 0 8 5 5 10 -3 6 -1 10 6 10 7 0
10 3 6 6 -3 3 8 19 24 35 16 15 29 34 29 41 0 7 9 19 21 26 12 8 18 19 15 28
-3 8 6 23 24 35 17 13 27 29 25 40 -2 10 1 22 7 25 7 5 8 2 3 -7 -4 -8 1 -5
12 6 11 11 19 23 17 27 -3 4 0 9 6 13 6 4 7 11 4 17 -4 7 -2 8 4 4 7 -4 12 -1
12 8 0 9 5 16 11 16 6 0 8 7 5 16 -3 8 -2 12 3 9 10 -5 25 12 26 30 2 23 18
44 28 38 6 -4 8 0 4 11 -4 10 -1 19 8 22 8 4 12 10 9 15 -3 5 0 9 5 9 6 0 11
9 11 20 0 11 5 20 11 20 6 0 9 6 6 13 -5 15 18 39 28 29 4 -4 2 3 -4 16 -10
18 -9 22 4 22 9 0 14 4 11 9 -6 10 28 53 36 46 3 -3 5 5 5 17 1 40 3 49 11 44
4 -2 9 5 9 16 1 12 7 24 14 28 6 4 8 13 5 19 -4 6 -2 11 4 11 6 0 8 5 5 10 -3
6 1 10 9 10 9 0 13 6 10 13 -3 8 2 20 11 27 13 11 13 15 3 21 -10 7 -10 9 -1
9 7 0 10 7 6 17 -4 9 -2 14 3 10 5 -3 14 6 21 19 8 18 8 23 0 18 -7 -3 -5 0 3
8 9 7 15 23 14 36 -1 16 6 27 20 32 11 5 16 9 11 9 -6 1 -11 12 -11 26 0 15 5
24 12 21 7 -3 10 6 8 25 -2 19 1 32 10 35 8 3 13 16 11 29 -1 14 6 32 16 41
11 10 16 22 11 28 -14 18 3 70 19 60 5 -3 5 6 -1 20 -8 21 -6 26 6 26 8 0 12
5 9 10 -4 6 -1 17 5 25 10 12 10 15 -1 15 -11 0 -11 2 1 10 12 8 12 10 1 10
-9 0 -6 7 9 20 13 11 18 20 11 20 -8 0 -9 5 -1 19 7 13 7 20 -1 23 -6 2 -1 15
11 31 15 18 17 27 8 27 -10 0 -10 2 1 9 11 7 11 9 0 14 -12 5 -12 6 0 6 11 1
11 4 1 16 -7 8 -8 15 -3 15 6 0 9 11 8 25 -2 14 2 28 8 32 15 10 18 43 5 43
-5 0 -6 6 -1 13 4 6 7 29 6 50 -2 26 2 37 12 37 14 0 15 16 2 37 -4 6 -3 14 2
17 10 7 9 25 -2 42 -3 6 -3 14 0 18 11 11 10 66 -1 66 -7 0 -6 3 1 8 7 4 11
18 9 29 -3 15 -1 20 9 17 14 -6 15 19 2 32 -4 4 -2 13 4 21 9 10 8 17 -2 30
-8 9 -9 14 -3 10 13 -7 13 131 -1 152 -5 9 -4 12 2 8 12 -8 11 72 -1 92 -6 10
-5 12 2 7 8 -5 12 1 12 14 0 14 -4 19 -12 14 -10 -6 -10 -4 -2 7 6 8 10 25 9
39 -2 14 -4 28 -4 33 -1 4 -8 7 -17 7 -13 0 -14 3 -5 14 8 10 9 16 1 21 -6 3
-7 12 -3 18 11 18 10 67 -1 67 -8 0 -8 3 -1 8 13 8 14 61 2 79 -4 6 -3 14 3
18 6 4 8 11 4 16 -3 5 -9 7 -14 4 -4 -3 -11 2 -14 11 -3 8 -2 12 4 9 5 -3 8 4
7 15 -1 11 -5 20 -10 20 -5 0 -5 6 2 13 8 10 7 17 -2 27 -9 10 -9 11 1 5 17
-9 12 24 -6 43 -7 8 -10 17 -7 22 3 5 -1 11 -7 13 -10 4 -9 6 1 6 10 1 11 4 2
15 -9 10 -9 16 -1 21 8 5 5 12 -7 22 -10 8 -11 11 -3 7 12 -6 13 -5 4 7 -14
18 -24 59 -15 59 4 0 7 9 7 19 0 11 -3 18 -6 16 -3 -2 -12 5 -19 17 -10 16
-10 19 1 12 11 -6 11 -5 0 8 -10 13 -10 18 -1 24 9 5 7 11 -5 20 -19 13 -29
74 -13 74 6 0 0 8 -12 19 -18 15 -20 23 -12 45 8 20 7 28 -8 38 -10 8 -17 24
-16 41 1 15 -3 27 -10 27 -7 0 -12 10 -12 23 -1 41 -3 48 -13 42 -6 -3 -10 5
-10 19 0 14 -5 28 -11 32 -6 3 -9 15 -6 25 3 11 0 19 -7 19 -6 0 -12 14 -12
31 -1 17 -6 34 -11 38 -14 9 -42 74 -37 83 3 4 -1 8 -9 8 -10 0 -12 9 -9 31 3
22 1 30 -7 25 -7 -4 -11 0 -11 13 0 10 -5 21 -11 23 -6 2 -12 15 -12 30 -1 14
-6 26 -12 25 -5 -1 -9 8 -9 20 1 14 -3 20 -12 16 -9 -3 -12 2 -9 16 3 16 -1
21 -18 21 -16 0 -18 3 -9 9 16 10 18 21 4 30 -6 3 -12 13 -14 21 -5 25 -36 53
-48 45 -9 -6 -10 -3 -3 10 8 13 5 23 -10 38 -14 14 -16 21 -7 27 8 5 4 9 -10
13 -12 3 -19 10 -15 16 3 6 -1 11 -10 11 -11 0 -15 5 -11 15 3 8 -2 19 -12 24
-10 6 -12 11 -4 11 8 0 4 9 -10 24 -13 13 -26 22 -29 20 -3 -2 -5 8 -4 21 2
14 -2 23 -8 22 -7 -1 -11 4 -9 11 1 6 -5 12 -13 12 -8 0 -15 7 -15 16 0 9 5
12 12 8 7 -4 8 -3 4 4 -4 7 -14 12 -22 12 -8 0 -14 6 -14 14 0 8 -9 18 -20 21
-13 4 -20 15 -20 32 0 15 -3 24 -6 20 -8 -8 -34 18 -34 33 0 6 -4 8 -10 5 -10
-6 -14 6 -11 38 1 9 -4 17 -13 17 -17 0 -60 40 -69 64 -4 9 -11 16 -17 16 -6
0 -8 5 -5 10 3 6 1 10 -6 10 -7 0 -10 3 -6 6 7 8 -17 34 -32 34 -6 0 -11 7
-11 16 0 8 -4 12 -10 9 -5 -3 -10 -2 -10 3 0 13 -68 81 -74 74 -3 -3 -6 -1 -6
5 0 15 -36 54 -44 46 -3 -3 -6 0 -6 9 0 8 -11 21 -25 28 -14 7 -25 17 -25 22
0 14 -27 38 -34 31 -3 -4 -6 5 -6 18 0 18 -3 20 -9 10 -7 -11 -10 -9 -16 8 -3
11 -11 21 -17 21 -6 0 -20 8 -31 18 -12 10 -17 11 -12 3 5 -10 4 -12 -3 -7 -7
4 -12 17 -12 29 0 17 -3 19 -9 8 -7 -11 -10 -9 -16 8 -3 11 -13 21 -21 21 -8
0 -14 5 -14 10 0 6 -4 9 -9 8 -5 -2 -17 6 -26 17 -9 11 -13 14 -9 6 5 -9 3
-12 -4 -7 -7 4 -12 14 -12 22 0 8 -4 12 -10 9 -5 -3 -10 1 -10 10 0 9 -4 13
-10 10 -5 -3 -10 -1 -10 4 0 6 -9 11 -21 11 -12 0 -23 8 -26 18 -2 10 -13 19
-24 19 -12 1 -29 11 -38 22 -10 11 -21 17 -25 13 -4 -4 -7 -2 -6 3 4 19 0 38
-7 32 -3 -4 -13 -1 -21 6 -13 10 -14 9 -8 -3 5 -8 -4 -3 -18 13 -15 15 -31 25
-36 22 -4 -3 -10 -1 -12 4 -1 5 -10 11 -18 13 -8 2 -23 11 -32 21 -9 10 -25
20 -35 22 -10 1 -17 8 -15 15 1 6 -2 9 -7 6 -5 -4 -12 -2 -16 3 -3 6 -13 7
-22 4 -12 -5 -14 -3 -8 7 6 10 2 11 -21 6 -16 -4 -24 -3 -17 1 8 6 4 15 -13
30 -13 12 -24 17 -24 11 0 -6 -6 -6 -15 2 -8 7 -12 16 -9 21 3 5 -6 5 -20 -1
-14 -5 -25 -6 -25 -2 4 28 -1 34 -18 21 -9 -8 -14 -9 -11 -4 7 12 -12 31 -32
30 -8 0 -21 5 -28 12 -7 7 -22 13 -33 13 -10 0 -19 5 -19 11 0 7 -9 9 -21 6
-13 -3 -22 0 -26 10 -3 8 -13 13 -24 10 -10 -3 -17 0 -16 7 1 6 -6 11 -16 11
-10 0 -22 6 -26 14 -5 8 -16 11 -24 8 -8 -3 -20 0 -26 6 -6 6 -11 7 -11 2 0
-5 -7 0 -15 11 -8 10 -15 14 -15 7 0 -6 -9 -9 -20 -6 -11 3 -17 9 -14 14 3 5
-7 9 -21 9 -15 0 -24 4 -20 10 4 6 -8 10 -29 10 -25 0 -36 4 -36 15 0 8 -5 15
-11 15 -5 0 -7 -5 -3 -11 5 -8 2 -9 -11 -2 -10 6 -26 8 -36 6 -11 -3 -19 0
-19 6 0 6 -14 11 -30 11 -17 0 -33 6 -36 13 -2 7 -19 12 -37 12 -41 -2 -59 4
-51 17 4 6 -2 8 -15 3 -13 -4 -29 -1 -38 7 -12 9 -15 9 -9 1 4 -7 3 -13 -2
-13 -6 0 -12 6 -15 14 -3 8 -16 13 -31 12 -13 -2 -30 0 -37 5 -7 4 -22 3 -33
-3 -12 -6 -18 -7 -14 -3 13 14 -25 34 -44 24 -13 -7 -18 -6 -18 3 0 10 -2 10
-8 1 -5 -8 -11 -8 -24 1 -10 7 -14 17 -10 21 4 5 0 4 -8 0 -22 -13 -60 -15
-60 -3 0 6 -6 5 -16 -3 -13 -10 -17 -10 -25 2 -7 11 -9 11 -9 1 0 -10 -4 -9
-16 2 -8 9 -20 14 -25 11 -5 -4 -9 -1 -9 6 0 8 -4 8 -15 -1 -12 -10 -15 -10
-15 1 0 12 -2 12 -9 0 -6 -9 -11 -10 -15 -2 -5 8 -13 8 -27 1 -14 -8 -19 -7
-19 2 0 8 -3 9 -8 3 -4 -5 -24 -10 -44 -10 -28 -1 -39 4 -44 17 -4 14 -9 16
-25 8 -11 -7 -19 -7 -19 -1 0 10 -25 9 -36 -2 -4 -3 -15 -2 -25 4 -11 5 -19 6
-19 1 0 -4 -9 -8 -20 -8 -11 0 -20 3 -20 7 0 9 -21 6 -37 -4 -8 -5 -13 -3 -13
3 0 6 -4 8 -10 5 -18 -11 -50 -14 -50 -4 0 6 -8 6 -20 -1 -14 -8 -20 -8 -20 0
0 8 -6 8 -20 0 -14 -8 -20 -8 -20 0 0 8 -6 8 -20 0 -12 -7 -20 -7 -20 -1 0 10
-31 7 -49 -3 -5 -4 -11 -2 -13 4 -2 5 -9 6 -17 1z m24 -1746 c6 0 13 4 17 10
5 6 8 4 8 -5 0 -13 1 -13 10 0 8 12 10 12 10 1 0 -10 3 -11 14 -2 8 7 17 8 20
3 4 -7 51 -9 51 -2 0 1 10 3 23 4 12 2 22 -1 22 -5 0 -10 34 -6 42 6 5 6 8 5
8 -4 0 -10 3 -11 14 -2 11 9 16 9 21 0 6 -8 10 -7 16 2 7 12 9 12 9 0 0 -10 3
-11 14 -2 10 8 16 9 21 1 4 -7 12 -7 26 0 10 6 19 7 19 2 0 -5 11 -14 25 -20
31 -14 38 -15 31 -4 -3 5 1 9 9 9 8 0 15 -4 15 -8 0 -4 12 -6 28 -5 32 4 54
-3 47 -14 -3 -4 6 -7 20 -6 14 0 25 6 25 11 0 6 4 4 9 -3 4 -8 11 -13 15 -13
24 3 36 -1 31 -9 -4 -7 3 -9 20 -6 16 3 28 0 31 -9 3 -7 13 -12 22 -10 9 1 23
-2 30 -8 9 -7 11 -5 7 9 -5 16 -4 15 7 -2 8 -14 22 -21 39 -20 15 1 25 -3 23
-9 -3 -6 6 -11 18 -12 13 -1 24 -7 26 -13 2 -5 7 -8 12 -5 5 3 15 -2 24 -11 9
-8 21 -12 27 -8 8 5 9 3 4 -6 -6 -10 -4 -12 9 -7 10 4 15 3 11 -3 -3 -6 3 -10
14 -10 12 0 21 -4 21 -10 0 -5 12 -10 26 -10 14 0 23 -4 19 -10 -6 -10 7 -14
33 -11 7 1 15 -5 18 -13 3 -9 10 -14 14 -11 5 3 15 -1 23 -9 8 -8 18 -12 23
-8 5 4 2 -1 -5 -11 -12 -15 -12 -17 3 -11 9 3 16 1 16 -6 0 -6 4 -9 9 -5 12 7
61 -41 52 -51 -3 -4 0 -4 7 0 8 5 20 0 31 -13 10 -12 23 -21 30 -21 6 0 11 -5
11 -11 0 -5 16 -17 35 -25 19 -8 35 -21 35 -30 0 -8 4 -12 10 -9 5 3 15 -5 21
-19 7 -14 16 -23 20 -20 4 2 15 -8 23 -23 8 -15 15 -24 16 -20 0 12 30 -20 30
-32 0 -6 6 -10 13 -8 6 1 11 -4 10 -10 -2 -7 2 -13 8 -13 12 0 44 -30 32 -30
-4 0 -1 -5 7 -10 11 -7 12 -10 2 -10 -10 0 -10 -3 2 -15 8 -8 17 -15 20 -15
15 0 44 -34 39 -46 -3 -8 0 -14 5 -14 6 0 14 -9 17 -20 4 -11 10 -18 15 -15 5
3 14 -11 21 -30 7 -19 17 -35 21 -35 4 0 8 -9 8 -20 0 -11 7 -20 16 -20 8 0
12 -4 9 -10 -3 -5 -1 -10 4 -10 6 0 10 -3 10 -7 -4 -22 2 -33 13 -27 8 5 9 2
5 -10 -4 -10 -1 -19 8 -22 8 -4 15 -15 15 -26 0 -12 8 -27 18 -34 10 -8 12
-13 5 -14 -7 0 -10 -7 -7 -15 4 -8 10 -12 15 -9 5 3 9 -4 9 -14 0 -11 7 -22
15 -26 9 -3 12 -12 8 -22 -5 -13 -3 -15 7 -9 9 6 11 4 5 -5 -4 -7 -2 -16 6
-21 12 -7 12 -10 1 -18 -11 -6 -10 -10 3 -15 11 -4 15 -13 12 -26 -3 -11 -1
-17 4 -14 11 7 21 -18 24 -60 4 -47 4 -48 17 -40 7 4 8 3 4 -5 -4 -6 -2 -19 6
-28 11 -14 11 -15 0 -9 -10 6 -9 0 2 -23 9 -17 14 -31 11 -31 -3 0 -1 -9 5
-19 7 -14 7 -22 -1 -27 -6 -3 -7 -9 -3 -13 15 -11 33 -49 26 -55 -11 -12 -10
-36 1 -36 8 0 8 -3 2 -8 -14 -10 -15 -42 -1 -39 6 1 10 -6 8 -15 -2 -10 2 -18
9 -18 8 0 8 -5 -2 -16 -10 -13 -10 -17 0 -24 8 -5 10 -13 5 -21 -12 -20 -14
-59 -2 -59 6 0 5 -6 -3 -16 -7 -9 -9 -18 -3 -22 11 -8 11 -32 1 -49 -4 -6 -3
-14 3 -18 6 -4 7 -12 3 -18 -10 -17 -11 -47 -1 -47 5 0 6 -5 2 -12 -12 -20
-14 -58 -2 -58 6 0 5 -6 -3 -16 -7 -9 -9 -18 -3 -22 11 -8 12 -38 1 -48 -4 -4
-2 -13 4 -20 9 -10 7 -15 -5 -20 -9 -3 -13 -10 -10 -15 3 -5 1 -9 -4 -9 -10 0
-9 -30 1 -47 4 -6 3 -14 -2 -18 -6 -3 -8 -12 -4 -20 3 -8 0 -15 -7 -15 -6 0
-8 -4 -5 -10 3 -5 2 -10 -4 -10 -10 0 -7 -31 4 -50 3 -6 -2 -14 -12 -18 -19
-7 -30 -62 -12 -62 5 0 4 -6 -3 -14 -7 -8 -16 -12 -20 -10 -4 3 -5 -7 -2 -20
2 -14 -3 -31 -12 -40 -8 -9 -13 -16 -9 -16 3 0 1 -10 -6 -21 -7 -15 -8 -19 0
-15 7 5 9 1 5 -8 -3 -9 -9 -16 -13 -16 -11 0 -33 -60 -28 -74 3 -8 -1 -17 -9
-20 -8 -3 -14 -15 -14 -26 0 -11 -4 -20 -10 -20 -5 0 -10 -9 -10 -21 0 -11 -4
-17 -10 -14 -6 3 -10 -5 -10 -19 0 -13 -5 -26 -10 -28 -6 -2 -12 -13 -13 -25
0 -12 -4 -20 -8 -17 -4 2 -10 -3 -13 -12 -3 -8 -11 -12 -17 -8 -7 4 -9 3 -6
-4 9 -13 -2 -44 -13 -37 -4 2 -6 -7 -4 -20 1 -14 -2 -23 -6 -20 -5 3 -19 -9
-31 -27 -13 -17 -18 -28 -11 -24 8 5 10 2 6 -9 -4 -9 -13 -14 -20 -11 -8 3
-13 2 -11 -2 1 -4 -9 -18 -22 -31 -19 -19 -21 -25 -10 -32 12 -7 11 -9 -1 -10
-8 -1 -18 -1 -22 0 -4 0 -4 -7 -1 -16 4 -10 2 -14 -5 -9 -6 3 -13 -3 -17 -14
-6 -18 -17 -24 -37 -21 -4 0 -5 -6 -1 -15 3 -8 2 -14 -3 -13 -21 4 -25 -2 -13
-18 8 -9 9 -14 3 -10 -6 3 -17 -5 -24 -18 -7 -13 -16 -22 -20 -20 -4 2 -13 -7
-20 -20 -7 -14 -20 -25 -28 -25 -9 0 -13 -3 -9 -6 9 -10 -16 -32 -30 -27 -7 3
-13 0 -13 -5 0 -6 -9 -13 -19 -17 -11 -3 -23 -15 -26 -26 -4 -10 -10 -17 -15
-14 -4 3 -11 -2 -14 -11 -3 -9 -13 -14 -21 -11 -8 4 -16 -2 -20 -14 -4 -10 -9
-18 -13 -15 -4 2 -16 -6 -27 -17 -11 -11 -14 -16 -6 -12 9 5 12 4 8 -3 -4 -5
-15 -9 -25 -8 -9 2 -27 -7 -39 -20 -13 -14 -28 -21 -38 -18 -11 5 -14 2 -9 -9
4 -12 1 -15 -14 -12 -14 2 -26 -5 -37 -22 -11 -17 -23 -23 -36 -20 -10 3 -17
2 -15 -1 5 -8 -15 -27 -29 -28 -25 -1 -66 -25 -59 -35 4 -8 0 -8 -15 0 -13 7
-21 8 -21 2 0 -6 -7 -7 -17 -4 -12 5 -14 3 -8 -7 6 -10 2 -12 -18 -8 -17 3
-24 1 -21 -7 7 -17 -31 -26 -47 -11 -9 8 -10 8 -4 -3 6 -11 4 -13 -9 -8 -10 4
-15 3 -11 -3 3 -6 -5 -10 -19 -10 -14 0 -26 -5 -26 -11 0 -5 -4 -8 -9 -4 -5 3
-12 1 -15 -4 -7 -10 -25 -9 -43 2 -7 4 -16 0 -21 -9 -6 -10 -24 -16 -54 -17
-30 -1 -54 -9 -69 -22 -12 -11 -20 -15 -16 -9 8 14 -75 13 -85 -1 -5 -6 -8 -5
-8 2 0 16 -62 11 -68 -6 -2 -6 -8 -8 -14 -5 -6 4 -14 0 -19 -7 -5 -8 -9 -9 -9
-3 0 12 -38 13 -57 1 -7 -5 -13 -4 -13 1 0 5 -17 9 -37 8 -21 0 -37 4 -36 9 1
6 -31 11 -73 11 -40 1 -72 -2 -69 -6 2 -4 -11 -2 -30 4 -18 6 -32 13 -29 17 2
4 -17 6 -43 5 -35 -2 -50 3 -64 18 -11 11 -19 14 -19 8 0 -15 -33 -10 -54 7
-9 7 -22 11 -30 8 -8 -3 -24 3 -37 14 -17 14 -25 16 -35 8 -11 -9 -15 -7 -20
5 -3 9 -15 16 -25 16 -10 0 -19 5 -19 12 0 6 -3 8 -7 5 -3 -4 -12 -2 -20 4 -9
8 -13 8 -13 1 0 -6 -7 -9 -15 -6 -8 4 -13 10 -10 14 3 5 1 11 -5 15 -5 3 -10
0 -10 -7 -1 -9 -5 -7 -14 4 -7 10 -16 15 -19 11 -4 -3 -7 -1 -7 5 0 7 -5 12
-11 12 -5 0 -7 -5 -3 -12 4 -6 -4 -3 -18 8 -14 10 -23 23 -20 28 3 5 0 6 -7 2
-7 -5 -20 1 -30 13 -10 11 -21 18 -24 15 -7 -8 -38 21 -32 30 3 3 -1 2 -7 -4
-14 -12 -29 -13 -27 -2 3 19 -2 33 -11 27 -5 -3 -10 -1 -10 6 0 8 -4 8 -15 -1
-13 -11 -14 -10 -9 6 4 10 4 16 -1 12 -4 -4 -19 4 -32 18 -12 14 -23 19 -23
13 0 -7 -9 -3 -20 9 -12 12 -25 22 -30 22 -6 0 -10 6 -10 14 0 8 -9 18 -20 21
-11 4 -18 10 -16 14 3 4 -4 8 -15 8 -22 2 -51 27 -42 37 4 3 -1 6 -10 6 -10 0
-17 4 -17 9 0 10 -62 76 -70 74 -3 0 -15 10 -28 23 -12 13 -20 24 -16 24 3 0
-2 8 -13 18 -10 9 -12 13 -4 7 10 -7 8 -1 -4 17 -11 15 -26 28 -34 28 -8 0
-12 3 -8 6 7 7 -26 42 -35 37 -5 -2 -8 8 -8 23 0 15 -3 24 -6 21 -4 -4 -16 10
-27 31 -11 20 -28 44 -38 53 -10 9 -16 19 -13 22 4 3 -8 20 -25 37 -31 32 -40
47 -20 34 6 -3 4 5 -5 18 -9 14 -13 28 -9 33 5 4 4 6 -2 3 -15 -9 -38 19 -23
28 7 5 4 10 -11 16 -12 4 -20 12 -16 18 6 9 -8 40 -35 74 -13 17 -13 18 0 11
12 -7 13 -6 3 7 -7 8 -9 18 -5 22 4 4 -1 14 -11 21 -10 7 -16 19 -15 26 2 8
-2 13 -9 12 -7 -2 -10 6 -8 18 5 24 -4 51 -14 44 -10 -6 -7 27 4 44 6 10 4 12
-5 6 -10 -6 -12 -4 -7 9 4 10 1 19 -9 23 -13 5 -13 7 -2 14 9 6 9 9 1 9 -7 0
-11 13 -11 30 1 17 -5 36 -12 43 -10 9 -11 9 -5 -2 5 -10 4 -12 -4 -7 -6 4 -8
13 -4 19 13 20 11 57 -3 57 -7 0 -11 8 -9 20 2 11 -1 22 -6 25 -5 4 -7 11 -3
16 8 14 11 108 3 103 -14 -8 -18 32 -16 169 1 86 -2 137 -8 137 -5 0 -3 5 5
10 12 8 13 11 1 19 -9 6 -10 10 -2 16 9 5 9 11 -1 23 -8 10 -9 13 -1 9 16 -10
27 11 25 45 -1 16 3 28 10 28 6 0 4 6 -7 13 -13 10 -15 16 -6 21 9 6 9 11 0
22 -10 12 -10 15 2 12 9 -2 15 8 17 32 2 19 9 38 15 42 8 5 8 8 1 8 -14 0 -14
28 1 33 12 5 13 46 0 67 -5 8 -4 11 3 6 6 -3 17 7 26 24 8 17 11 28 7 26 -4
-3 -8 1 -8 9 0 8 4 12 9 9 4 -3 9 0 9 5 1 6 2 19 4 29 3 30 17 52 27 46 7 -4
7 0 0 12 -11 23 -5 47 10 37 7 -4 9 2 5 16 -3 15 0 24 9 28 8 3 13 12 10 19
-3 7 -1 16 5 20 6 3 8 12 5 20 -3 8 -1 14 4 14 5 0 12 9 15 20 4 11 10 18 15
15 4 -3 6 4 3 14 -3 13 2 24 16 33 12 7 21 17 21 23 1 14 39 92 40 80 0 -5 7
1 16 13 8 12 12 27 9 32 -3 6 1 10 9 10 9 0 16 7 16 16 0 9 5 12 12 8 6 -4 8
-3 4 4 -3 6 5 22 18 35 14 14 22 28 19 31 -4 3 -1 6 6 6 7 0 9 5 6 10 -6 10
81 101 89 93 2 -3 7 5 11 16 3 12 11 19 16 15 5 -3 9 -2 8 3 -4 26 31 79 45
66 3 -3 6 -1 6 6 0 8 6 11 16 7 8 -3 13 -2 11 2 -6 9 19 33 27 25 3 -4 6 -1 6
5 0 16 41 52 51 46 5 -3 6 3 2 12 -5 13 -3 15 7 9 9 -6 12 -4 8 7 -4 8 0 15 8
16 8 1 21 3 29 4 8 1 15 7 15 14 0 16 35 36 45 26 3 -4 5 0 3 8 -2 8 3 14 10
15 7 0 17 6 21 14 5 7 14 10 20 7 7 -5 10 -2 9 6 -2 7 3 12 10 11 6 -2 12 2
12 8 0 5 5 7 10 4 6 -3 10 1 10 10 0 9 5 13 10 10 6 -3 10 -1 10 5 0 6 5 8 10
5 6 -3 13 1 16 10 4 9 13 14 20 11 7 -3 20 2 29 10 8 8 19 13 24 10 5 -3 11 0
14 8 3 8 16 16 29 18 13 2 22 9 20 17 -3 12 0 12 14 0 10 -8 15 -9 11 -2 -6
10 27 24 68 28 6 0 9 6 8 11 -1 6 8 9 21 7 17 -4 25 1 29 17 4 15 10 19 19 14
25 -16 46 -11 42 9 -2 13 0 16 9 10 17 -13 72 -9 70 5 -2 6 6 9 17 7 11 -2 20
2 20 8 0 8 3 8 8 2 9 -12 44 -16 36 -4 -6 10 -1 11 61 14 22 2 45 4 50 5 6 1
13 2 18 1 4 0 7 6 7 15 0 10 4 12 13 7 6 -4 17 -8 22 -8z m-2860 -3883 c-3 -3
-11 0 -18 7 -9 10 -8 11 6 5 10 -3 15 -9 12 -12z"/>
<path d="M4588 13732 c-17 -3 -23 -15 -19 -35 1 -5 -2 -6 -7 -3 -5 3 -14 -5
-20 -19 -8 -18 -8 -25 1 -29 8 -3 5 -11 -10 -24 -16 -14 -19 -22 -10 -31 8 -8
8 -11 -2 -11 -7 0 -10 -4 -7 -9 3 -5 -1 -11 -9 -15 -8 -3 -15 -10 -15 -16 0
-6 6 -8 13 -5 6 4 4 0 -5 -8 -10 -8 -15 -17 -11 -20 3 -4 2 -7 -3 -7 -5 0 -10
-12 -11 -27 0 -15 -9 -33 -19 -40 -13 -10 -14 -13 -3 -13 12 0 12 -2 0 -9 -7
-5 -14 -22 -14 -39 -1 -23 -5 -28 -14 -21 -9 8 -11 3 -8 -20 2 -17 -1 -31 -6
-31 -6 0 -8 -4 -4 -9 3 -5 1 -12 -5 -16 -5 -3 -10 -15 -10 -26 0 -10 -5 -19
-11 -19 -5 0 -7 5 -3 12 4 7 3 8 -4 4 -8 -4 -8 -15 -2 -31 7 -17 5 -25 -6 -29
-8 -3 -14 -9 -13 -13 4 -21 -2 -33 -13 -27 -6 4 -8 3 -4 -4 3 -6 2 -13 -4 -17
-7 -4 -7 -12 0 -26 8 -15 7 -19 -4 -19 -9 0 -13 -7 -11 -20 2 -11 -1 -19 -8
-17 -7 1 -11 -4 -9 -10 1 -7 -4 -13 -10 -13 -10 0 -10 -2 0 -9 11 -7 11 -11
-2 -23 -8 -9 -16 -32 -18 -51 -1 -23 -6 -33 -14 -30 -9 3 -11 -2 -7 -18 4 -15
3 -20 -5 -15 -11 7 -15 -7 -15 -56 0 -10 -4 -15 -8 -12 -5 3 -9 -2 -9 -10 0
-9 -6 -16 -12 -16 -10 0 -10 -2 0 -9 10 -6 8 -10 -9 -14 -19 -5 -20 -8 -10
-21 13 -15 6 -40 -8 -31 -5 2 -7 -8 -5 -23 1 -15 -4 -35 -13 -44 -9 -10 -13
-18 -8 -18 4 0 0 -11 -9 -25 -9 -14 -13 -25 -9 -25 5 0 1 -5 -7 -10 -13 -8
-13 -10 -1 -10 11 0 8 -6 -7 -20 -12 -11 -19 -27 -16 -35 5 -11 2 -13 -11 -9
-14 6 -16 4 -8 -12 11 -21 6 -47 -7 -39 -4 3 -10 -2 -14 -10 -3 -8 -2 -15 2
-15 4 0 8 -9 8 -19 0 -11 -3 -18 -7 -15 -7 4 -16 -12 -17 -30 0 -5 -6 -12 -13
-17 -7 -4 -13 -19 -14 -32 0 -13 -6 -31 -14 -40 -9 -12 -10 -17 -2 -17 7 0 9
-5 6 -10 -4 -6 -11 -8 -16 -5 -10 7 -11 4 -13 -38 -1 -16 -7 -31 -14 -36 -6
-4 -10 -17 -8 -28 3 -13 -2 -24 -11 -27 -8 -4 -13 -13 -10 -20 3 -8 -1 -17
-10 -20 -10 -4 -14 -15 -11 -31 3 -14 0 -26 -8 -29 -8 -3 -14 -15 -14 -26 0
-11 -4 -20 -10 -20 -5 0 -8 -14 -6 -30 2 -17 -1 -33 -7 -37 -6 -4 -7 -1 -2 8
5 10 5 11 -3 4 -6 -5 -12 -26 -14 -45 -2 -21 -8 -34 -15 -33 -7 2 -10 -4 -7
-12 4 -8 1 -15 -5 -15 -7 0 -11 -8 -9 -17 2 -12 -2 -17 -12 -15 -11 3 -9 -3 5
-20 11 -13 16 -20 11 -16 -13 11 -34 -14 -28 -34 3 -13 0 -17 -10 -13 -11 4
-14 -4 -13 -34 1 -30 -2 -38 -14 -33 -9 3 -12 1 -7 -7 4 -6 2 -19 -6 -28 -11
-14 -11 -16 1 -8 9 5 6 -5 -7 -22 -12 -17 -19 -33 -15 -37 3 -3 1 -6 -5 -6 -7
0 -10 -12 -8 -30 2 -16 1 -29 -3 -28 -24 3 -33 -3 -23 -15 9 -10 6 -18 -10
-31 -15 -14 -18 -20 -8 -26 10 -6 9 -9 -1 -13 -10 -4 -10 -6 -1 -6 7 -1 4 -9
-9 -22 -16 -16 -18 -23 -9 -34 9 -11 7 -16 -9 -24 -12 -7 -18 -17 -14 -27 3
-9 0 -14 -8 -12 -8 2 -13 -9 -13 -34 0 -20 -5 -36 -11 -35 -5 1 -9 -6 -7 -17
2 -10 -1 -15 -6 -12 -14 9 -22 -30 -8 -45 8 -9 8 -10 -1 -5 -8 5 -13 1 -13 -9
0 -9 -5 -13 -10 -10 -7 4 -9 -5 -5 -24 4 -24 2 -31 -10 -31 -9 0 -14 -4 -11
-8 3 -5 -2 -21 -9 -36 -8 -16 -12 -32 -9 -37 3 -5 -1 -9 -8 -9 -11 0 -10 -2 0
-9 11 -7 11 -9 -2 -14 -9 -4 -16 -16 -16 -27 0 -13 -4 -18 -11 -14 -7 4 -10
-5 -8 -27 2 -23 -1 -33 -9 -31 -10 2 -18 -41 -13 -71 1 -5 -3 -6 -8 -3 -5 3
-12 -6 -15 -19 -4 -14 -11 -23 -16 -20 -6 4 -7 -7 -3 -26 4 -19 2 -30 -3 -26
-6 3 -11 -4 -11 -16 -1 -12 -7 -23 -13 -25 -5 -2 -10 -17 -10 -33 0 -16 -5
-29 -11 -29 -5 0 -7 -4 -4 -10 3 -5 1 -10 -5 -10 -7 0 -10 -6 -7 -13 6 -15
-18 -39 -29 -29 -5 4 -2 -2 6 -12 12 -15 12 -20 2 -23 -6 -3 -10 -9 -6 -14 3
-5 1 -9 -5 -9 -5 0 -8 -11 -6 -25 1 -16 -3 -25 -11 -25 -7 0 -11 -6 -8 -13 2
-7 -4 -24 -15 -36 -16 -19 -18 -28 -10 -43 8 -15 8 -19 0 -14 -6 4 -11 0 -11
-8 0 -9 -5 -16 -11 -16 -5 0 -8 -4 -4 -9 3 -6 -3 -14 -12 -20 -11 -6 -13 -11
-5 -11 8 0 10 -5 5 -12 -8 -13 -9 -18 -12 -39 0 -5 -5 -8 -9 -5 -4 2 -8 -4 -8
-15 0 -10 4 -19 9 -19 4 0 2 -6 -5 -14 -7 -8 -16 -12 -20 -10 -3 2 -4 -6 0
-18 3 -14 2 -19 -6 -14 -7 4 -12 4 -13 -1 0 -4 -2 -21 -3 -36 -1 -16 -8 -32
-15 -36 -8 -5 -10 -14 -7 -20 4 -6 0 -14 -8 -17 -9 -3 -16 -10 -16 -16 0 -5 5
-6 11 -3 11 7 -11 -36 -23 -45 -4 -3 -6 -16 -3 -28 2 -14 -2 -25 -11 -29 -8
-3 -13 -11 -10 -19 3 -7 -2 -18 -10 -25 -8 -7 -14 -19 -13 -28 3 -29 -1 -42
-9 -37 -5 3 -9 -1 -10 -9 -1 -8 -3 -21 -4 -29 -1 -8 -7 -12 -13 -10 -8 3 -10
-5 -7 -26 3 -19 0 -30 -8 -30 -7 0 -10 -7 -6 -15 3 -8 0 -15 -7 -15 -8 0 -6
-4 3 -10 9 -6 10 -10 3 -10 -6 0 -18 -14 -27 -30 -9 -20 -10 -28 -3 -24 7 3 1
-4 -13 -16 -14 -12 -19 -19 -12 -15 8 4 12 -1 12 -15 0 -11 -7 -23 -15 -26 -8
-4 -15 -15 -15 -25 0 -11 -7 -19 -17 -19 -11 0 -14 -3 -8 -8 13 -9 13 -47 1
-59 -5 -5 -6 -2 -1 6 6 10 4 12 -4 7 -7 -5 -10 -11 -7 -14 3 -3 1 -12 -6 -19
-9 -11 -9 -17 3 -24 11 -7 10 -9 -5 -9 -13 0 -17 -5 -13 -20 3 -11 2 -18 -2
-16 -4 3 -12 -4 -19 -15 -7 -10 -8 -19 -4 -19 5 0 9 -7 9 -15 0 -8 -4 -12 -8
-10 -9 6 -21 -24 -14 -35 3 -5 -4 -14 -16 -21 -17 -9 -19 -13 -8 -20 10 -6 11
-9 2 -9 -7 0 -12 -3 -12 -7 3 -19 -2 -34 -10 -29 -4 3 -7 -7 -5 -21 1 -16 -4
-32 -14 -40 -13 -9 -14 -12 -3 -13 9 0 6 -7 -9 -20 -15 -13 -18 -20 -9 -20 11
0 11 -2 -1 -10 -8 -5 -11 -10 -6 -10 4 0 1 -11 -8 -25 -9 -14 -14 -31 -10 -37
5 -7 2 -9 -9 -5 -14 5 -15 0 -12 -36 3 -25 1 -37 -4 -28 -11 17 -19 3 -17 -31
1 -15 -4 -30 -12 -33 -7 -3 -11 -9 -8 -14 3 -5 -1 -11 -9 -15 -8 -3 -12 -12
-9 -21 4 -8 1 -15 -6 -15 -9 0 -10 -4 -2 -13 8 -10 6 -17 -7 -27 -11 -7 -17
-19 -14 -26 3 -8 -1 -16 -9 -19 -10 -4 -13 -15 -10 -31 2 -14 0 -24 -7 -24 -6
0 -11 -10 -11 -23 0 -13 -6 -29 -12 -36 -11 -11 -10 -13 2 -7 8 4 7 1 -3 -7
-10 -9 -18 -18 -18 -21 3 -20 0 -27 -8 -22 -5 4 -7 -7 -5 -24 4 -23 1 -30 -11
-30 -9 0 -13 -5 -10 -10 3 -6 -4 -24 -16 -42 -13 -17 -18 -28 -11 -24 7 4 12
1 12 -9 0 -8 -7 -18 -15 -21 -8 -4 -12 -10 -9 -15 3 -5 -1 -9 -8 -9 -8 0 -9
-3 -3 -8 13 -9 19 -35 6 -28 -9 6 -21 -18 -20 -37 0 -5 -7 -14 -17 -21 -13
-10 -14 -15 -4 -21 9 -6 9 -9 0 -15 -6 -4 -13 -16 -14 -26 -2 -10 -9 -18 -14
-17 -6 2 -9 -3 -6 -11 3 -8 0 -17 -6 -21 -8 -5 -8 -11 1 -21 9 -11 6 -16 -12
-23 -13 -5 -18 -10 -10 -10 10 -1 11 -4 2 -14 -6 -8 -8 -17 -5 -20 4 -3 -1
-14 -11 -23 -12 -13 -13 -19 -4 -24 8 -5 4 -10 -11 -15 -18 -6 -20 -9 -9 -16
9 -6 10 -9 2 -9 -6 0 -10 -9 -8 -20 2 -13 -2 -20 -11 -20 -9 0 -14 -7 -12 -17
2 -10 -2 -17 -8 -16 -6 1 -11 -4 -11 -12 0 -8 5 -11 11 -8 6 4 5 -1 -3 -10 -7
-9 -10 -17 -7 -17 4 0 -2 -13 -12 -28 -11 -15 -23 -44 -27 -65 -4 -20 -12 -37
-17 -37 -6 0 -8 -9 -5 -20 3 -11 1 -20 -5 -20 -5 0 -6 -4 -3 -10 3 -5 1 -10
-6 -10 -7 0 -9 -3 -6 -6 11 -11 -13 -45 -26 -38 -9 5 -9 4 -1 -5 14 -15 6 -54
-8 -45 -5 3 -8 0 -7 -7 1 -8 -5 -30 -14 -49 -8 -19 -13 -39 -10 -43 3 -5 -3
-14 -13 -21 -12 -10 -14 -15 -5 -20 9 -6 7 -12 -6 -23 -10 -8 -11 -11 -3 -7 8
4 4 -5 -10 -21 -14 -16 -18 -25 -10 -21 11 5 10 3 -2 -6 -12 -11 -14 -18 -6
-32 8 -14 7 -17 -1 -12 -6 4 -11 1 -11 -8 0 -9 -5 -16 -10 -16 -6 0 -10 -8 -8
-17 2 -10 -3 -18 -9 -18 -11 0 -16 -7 -12 -17 7 -24 5 -40 -6 -44 -7 -3 -11
-18 -10 -34 1 -16 -1 -27 -6 -24 -5 3 -9 -2 -9 -10 0 -9 -6 -16 -12 -16 -9 0
-8 -4 2 -10 14 -9 7 -15 -14 -11 -5 1 -6 -7 -3 -19 3 -11 1 -23 -4 -26 -5 -3
-7 -10 -4 -15 4 -5 1 -9 -5 -9 -7 0 -10 -7 -6 -15 3 -10 -1 -15 -11 -15 -9 0
-13 -3 -10 -6 3 -4 2 -16 -4 -27 -8 -14 -8 -18 0 -13 17 11 13 2 -10 -25 -12
-13 -16 -25 -10 -27 6 -2 9 -7 7 -11 -3 -4 24 -6 59 -5 46 1 63 -2 58 -10 -5
-8 -3 -8 8 0 20 15 59 15 59 1 0 -8 2 -9 8 -1 9 14 43 14 61 0 11 -8 13 -8 8
0 -4 7 7 11 33 11 22 0 40 -5 40 -11 0 -8 2 -8 8 0 9 14 43 14 61 0 11 -8 13
-8 8 0 -4 7 7 11 33 11 22 0 40 -5 40 -11 0 -8 2 -8 8 0 4 6 23 11 42 11 19 0
38 -5 42 -11 5 -7 8 -8 8 0 0 5 18 10 40 11 27 1 38 -3 33 -11 -4 -6 1 -5 10
3 14 11 17 11 17 0 0 -10 3 -10 8 -3 4 7 21 12 37 12 17 0 33 -5 37 -12 6 -8
8 -8 8 1 0 6 15 11 35 11 20 0 35 -5 35 -11 0 -9 2 -9 8 -1 10 15 72 16 72 1
0 -9 2 -9 8 -1 8 13 140 13 161 0 9 -6 12 -5 8 1 -4 6 9 10 33 10 26 0 37 -4
33 -11 -5 -8 -3 -8 8 0 8 6 23 11 34 11 11 0 26 -5 34 -11 10 -7 13 -7 8 0 -4
7 16 11 63 11 47 0 67 -4 63 -11 -5 -7 -2 -7 8 0 8 6 23 11 34 11 11 0 26 -5
34 -11 11 -8 13 -8 8 0 -4 7 7 11 33 11 24 0 37 -4 33 -10 -4 -6 -1 -7 8 -1
22 13 79 14 79 1 0 -7 4 -6 10 3 9 13 11 13 20 0 5 -8 10 -10 10 -3 0 6 15 11
35 11 20 0 35 -5 35 -11 0 -9 2 -9 8 -1 10 16 74 16 66 1 -5 -8 -3 -8 7 0 7 7
24 13 37 13 19 0 22 4 17 20 -4 14 -2 20 7 18 8 -2 13 7 12 25 -1 15 3 27 7
27 5 0 8 6 7 13 -2 6 3 11 10 9 9 -2 10 3 4 15 -11 21 -5 46 9 38 5 -4 7 8 5
24 -2 22 1 31 11 31 9 0 13 6 10 14 -3 8 1 20 9 26 8 7 14 28 14 47 0 27 3 34
15 29 16 -6 16 14 0 26 -6 5 -4 8 5 8 12 0 13 2 1 9 -11 7 -10 10 6 15 15 5
19 14 17 35 -2 19 2 31 11 35 8 3 12 11 9 19 -5 14 20 70 28 62 2 -3 5 1 5 9
0 8 -6 12 -15 8 -10 -3 -7 3 6 16 13 13 19 28 15 41 -3 13 0 23 9 26 9 4 14
16 12 31 -1 13 1 24 4 24 4 0 13 9 20 21 10 16 10 19 1 13 -9 -5 -10 -2 -6 10
4 10 7 20 7 22 0 3 4 2 10 -1 6 -3 7 1 4 9 -4 10 -1 16 7 16 11 0 11 2 1 8 -7
5 -10 16 -6 25 3 9 10 15 14 12 4 -3 10 4 13 15 3 11 1 22 -4 26 -5 3 -3 11 4
18 6 8 15 12 19 9 5 -2 4 7 -2 21 -7 21 -6 26 5 26 9 0 12 6 9 15 -4 8 -1 15
6 15 10 0 10 3 0 15 -9 10 -9 15 -1 15 6 0 11 7 11 16 0 8 4 13 8 10 5 -3 8 8
7 24 l-2 29 74 -3 c49 -3 71 0 66 7 -4 6 -1 7 7 2 19 -11 81 -15 75 -4 -4 5 1
6 9 3 9 -3 13 -11 9 -18 -4 -6 1 -5 10 2 9 8 21 11 26 8 5 -4 12 -2 16 3 3 6
12 8 20 5 8 -4 12 -11 8 -18 -5 -8 -3 -8 8 1 8 6 38 10 69 8 30 -1 61 3 69 9
8 6 12 7 9 1 -4 -6 23 -10 72 -10 47 -1 76 3 73 9 -4 5 -1 6 7 1 19 -11 81
-15 75 -4 -4 5 1 6 9 3 9 -3 13 -11 9 -18 -4 -6 1 -5 10 2 9 8 21 11 26 8 5
-4 12 -2 16 3 3 6 12 8 20 5 8 -4 12 -11 8 -18 -5 -8 -3 -8 8 1 8 6 38 10 69
8 30 -1 61 3 69 9 8 6 12 7 9 1 -4 -6 23 -10 72 -10 47 -1 76 3 73 9 -4 5 -1
6 7 1 19 -11 81 -15 75 -4 -4 5 1 6 9 3 9 -3 13 -11 9 -18 -4 -6 1 -5 10 2 9
8 21 11 26 8 5 -4 12 -2 16 3 3 6 12 8 20 5 8 -4 12 -11 8 -18 -5 -8 -3 -8 8
1 8 6 38 10 69 8 30 -1 61 3 69 9 8 6 12 7 9 1 -4 -6 23 -10 72 -10 47 -1 76
3 73 9 -4 5 -1 6 7 1 19 -11 81 -15 75 -4 -4 5 1 6 9 3 9 -3 13 -11 9 -18 -4
-6 1 -5 10 2 9 8 21 11 26 8 5 -4 12 -2 16 3 3 6 12 8 20 5 8 -4 12 -11 8 -18
-5 -8 -3 -8 8 1 8 6 38 10 69 8 30 -1 61 3 69 9 8 6 12 7 9 1 -4 -6 23 -10 72
-10 47 -1 76 3 73 9 -4 5 -1 6 7 1 19 -11 81 -15 75 -4 -4 5 1 6 9 3 9 -3 13
-11 9 -18 -4 -6 1 -5 10 2 9 8 21 11 26 8 5 -4 13 -2 16 4 4 7 12 7 18 2 15
-11 118 -9 136 2 10 6 12 5 7 -2 -8 -14 29 -11 41 3 5 4 3 5 -3 2 -7 -4 -14 2
-17 14 -3 11 -14 23 -25 26 -14 3 -19 12 -17 29 1 14 -2 27 -8 31 -6 3 -7 1
-3 -5 4 -7 2 -12 -3 -12 -6 0 -11 7 -11 16 0 8 -4 13 -9 10 -5 -4 -8 2 -7 11
2 10 -5 24 -16 31 -10 7 -16 18 -13 23 4 5 -2 9 -12 9 -12 0 -19 8 -20 22 -1
12 -13 32 -27 45 -16 15 -23 29 -19 40 4 11 3 14 -5 9 -7 -4 -12 -1 -12 9 0 9
-4 13 -10 10 -5 -3 -10 0 -10 9 0 8 -6 17 -12 19 -10 4 -10 6 1 6 8 1 4 8 -10
21 -16 13 -19 19 -10 20 8 0 0 11 -18 24 -17 13 -27 26 -21 28 6 2 2 12 -10
26 -12 12 -18 27 -15 33 4 6 -2 13 -13 16 -11 3 -23 12 -26 20 -4 9 -2 12 7 7
9 -6 9 -5 0 8 -7 8 -9 19 -5 23 4 5 2 5 -5 1 -8 -4 -15 2 -19 19 -3 14 -10 25
-15 25 -5 0 -9 12 -9 26 0 14 -4 23 -10 19 -5 -3 -10 3 -10 14 0 12 -4 21 -10
21 -5 0 -9 3 -9 8 3 19 -2 33 -10 28 -5 -4 -8 5 -6 19 1 16 -3 25 -11 25 -8 0
-14 11 -14 26 0 14 -4 23 -9 19 -5 -3 -12 -1 -16 5 -3 5 -2 10 4 10 7 0 7 8 1
24 -5 13 -6 27 -2 31 4 4 0 5 -8 3 -10 -2 -14 3 -12 16 2 11 -1 15 -7 11 -7
-3 -11 3 -11 15 0 12 -4 19 -8 16 -7 -4 -11 12 -13 57 0 9 -4 17 -8 17 -4 0
-13 16 -20 35 -7 21 -17 33 -23 29 -7 -5 -8 -2 -2 7 11 19 14 40 4 34 -9 -6
-23 42 -15 54 3 5 -2 12 -11 15 -9 4 -14 9 -11 13 4 3 1 13 -6 21 -10 13 -9
14 3 7 13 -8 13 -7 0 11 -8 10 -19 22 -25 26 -6 5 -4 8 5 8 13 0 13 1 0 10
-13 9 -13 10 0 10 12 1 11 3 -3 11 -9 6 -15 14 -12 20 4 5 2 9 -3 9 -13 0 -11
30 2 30 6 1 1 6 -11 13 -24 13 -27 25 -11 45 7 8 7 12 0 12 -6 0 -9 7 -6 15 4
9 0 15 -10 15 -9 0 -16 4 -16 9 0 4 -29 8 -65 8 -44 0 -62 -3 -58 -11 5 -8 3
-8 -8 0 -19 14 -76 17 -84 4 -4 -6 -12 -7 -18 -3 -20 13 -218 12 -210 -1 5 -8
3 -8 -8 0 -19 14 -76 17 -84 4 -4 -7 -12 -7 -18 -2 -18 13 -59 13 -76 -1 -9
-7 -12 -7 -8 -1 8 14 -441 14 -462 0 -10 -7 -12 -6 -6 4 6 9 4 12 -7 8 -8 -4
-15 0 -15 7 0 8 4 13 8 12 4 -1 7 2 7 7 0 5 6 13 14 17 8 6 9 9 1 9 -6 0 -9 9
-6 20 3 11 9 17 14 14 5 -3 9 2 9 10 0 9 -6 16 -12 16 -7 1 -2 7 12 15 15 9
19 14 10 15 -13 0 -13 2 -1 9 8 5 11 16 8 24 -3 9 1 21 9 27 8 7 14 26 14 42
0 20 4 27 12 22 8 -5 9 0 6 14 -4 12 -1 22 4 22 6 0 4 8 -3 17 -10 12 -10 14
-1 9 13 -8 19 3 25 42 2 13 10 28 18 33 12 7 12 9 -1 9 -12 0 -12 2 -2 9 8 4
13 11 13 15 -1 3 -1 7 0 9 6 19 10 46 10 60 0 9 4 15 10 12 5 -4 9 5 9 19 0
14 6 26 13 26 8 0 7 4 -3 10 -13 9 -7 14 13 11 10 -1 9 7 -5 32 -11 21 -10 21
7 7 12 -10 16 -10 11 -2 -4 7 -3 19 3 26 7 8 10 20 9 27 -2 8 2 13 9 12 7 -2
10 6 8 17 -2 11 2 20 8 20 7 0 6 4 -3 10 -12 8 -12 10 2 15 9 4 15 14 13 23
-1 9 2 23 8 30 5 6 6 12 3 12 -4 0 0 8 10 17 10 10 12 19 6 21 -15 5 -3 32 14
32 8 0 14 5 14 10 0 6 -4 10 -8 10 -5 0 -9 7 -9 15 0 8 7 15 14 15 8 0 12 4 8
9 -3 5 0 13 6 17 8 4 7 9 -2 15 -11 7 -11 9 -1 9 7 0 11 4 8 9 -3 5 1 14 9 21
18 15 20 34 3 24 -10 -6 -10 -5 -1 8 7 8 9 19 5 23 -4 5 -1 5 6 1 6 -4 12 -4
13 1 0 4 2 16 4 26 2 9 -1 17 -6 17 -6 0 -7 5 -4 10 4 6 10 8 15 5 4 -3 11 2
14 11 9 22 8 26 -5 19 -13 -8 12 37 26 47 5 4 6 10 3 14 -4 3 -1 22 7 41 8 19
13 39 10 43 -3 5 2 13 11 18 11 6 15 17 11 31 -3 15 0 24 9 28 8 3 13 11 10
18 -2 7 2 25 10 40 8 15 14 38 14 52 0 16 4 22 11 17 8 -5 10 1 7 20 -3 14 -1
26 4 26 5 0 6 5 3 10 -3 6 1 13 9 16 11 4 14 14 10 30 -4 17 -1 26 11 30 13 5
14 9 3 15 -10 7 -11 9 0 9 7 0 10 5 6 12 -4 6 1 17 11 25 13 9 14 13 5 13 -10
0 -9 3 3 13 9 6 18 24 19 40 1 15 6 27 10 27 4 0 7 6 6 13 -2 6 3 11 11 9 12
-3 12 0 2 12 -11 13 -10 18 2 31 10 9 14 26 11 41 -4 19 -1 25 9 21 9 -3 13 5
12 32 -1 20 3 42 9 49 7 9 6 16 -3 22 -10 6 -8 10 9 15 12 4 19 10 14 14 -14
9 -15 31 -3 31 8 0 8 4 1 13 -11 14 10 41 23 29 4 -4 3 3 -4 15 -8 16 -8 24 0
29 8 5 8 9 -1 14 -9 5 -9 9 -1 14 6 4 11 3 11 -2 0 -5 10 -13 23 -17 12 -3 17
-9 10 -11 -8 -4 -9 -13 -3 -30 7 -17 6 -24 -3 -24 -6 -1 -1 -7 12 -14 16 -9
20 -16 12 -20 -6 -4 -8 -13 -4 -19 4 -7 8 -16 9 -22 0 -5 2 -16 2 -23 1 -8 7
-10 15 -6 8 5 8 2 -2 -9 -7 -9 -9 -17 -4 -17 5 0 9 -10 8 -22 -3 -29 5 -49 15
-43 5 3 7 -8 5 -25 -3 -22 0 -30 12 -30 10 0 13 -6 9 -16 -3 -8 -1 -24 5 -35
6 -11 12 -30 14 -41 3 -12 10 -25 17 -30 10 -6 10 -8 0 -8 -10 0 -10 -4 2 -16
19 -18 21 -28 4 -18 -8 5 -9 2 -5 -10 4 -10 7 -20 7 -22 0 -3 5 -2 12 2 8 5 9
0 6 -14 -4 -12 -2 -25 3 -28 5 -3 7 -10 4 -15 -4 -5 1 -9 10 -9 13 0 14 -4 5
-20 -8 -14 -8 -20 0 -20 6 0 8 -4 5 -10 -3 -5 2 -10 12 -11 10 0 13 -3 6 -6
-9 -3 -10 -10 -3 -22 5 -10 6 -21 3 -25 -3 -3 -2 -6 4 -6 6 0 13 -9 16 -20 3
-11 1 -20 -5 -20 -5 0 -6 -5 -3 -10 4 -6 10 -8 15 -5 4 3 10 -2 14 -10 3 -8 1
-17 -4 -20 -5 -3 -7 -12 -3 -21 3 -8 8 -12 11 -10 3 3 11 1 19 -5 10 -9 13 -7
14 7 0 11 2 31 3 47 1 15 -3 27 -9 27 -5 0 -4 4 3 8 9 6 10 16 3 34 -5 14 -7
28 -5 31 3 3 7 11 8 19 15 64 20 78 30 78 6 0 4 5 -4 10 -13 9 -13 11 0 20 10
6 11 10 3 10 -15 0 -12 38 3 48 6 4 10 31 9 60 -1 32 4 57 12 64 7 5 10 14 7
19 -3 5 0 17 5 27 7 13 6 23 -2 31 -9 10 -8 15 5 25 10 8 16 22 13 34 -2 12 1
22 7 22 6 0 5 7 -3 17 -8 9 -9 14 -4 11 6 -3 16 0 23 8 7 8 9 14 4 14 -5 0 -9
7 -9 15 0 8 5 15 11 15 6 0 6 4 -1 11 -9 9 -6 16 10 30 13 11 17 18 9 19 -10
0 -10 5 -1 21 8 15 8 19 0 15 -19 -12 -12 2 11 24 12 11 16 20 10 20 -8 0 -6
13 8 40 11 22 16 40 10 40 -5 0 -10 5 -10 11 0 5 3 8 8 6 4 -3 13 1 19 9 8 8
9 15 3 19 -6 4 -3 17 9 34 15 20 17 31 9 45 -7 13 -7 17 0 12 10 -6 24 16 27
47 2 9 3 22 4 28 0 5 5 8 10 4 6 -3 8 4 6 15 -2 12 1 20 9 20 8 0 12 13 12 39
-1 22 3 37 9 35 10 -4 35 40 35 63 0 7 5 13 11 13 6 0 9 6 6 14 -3 7 1 26 9
41 8 15 11 32 7 39 -4 6 1 5 10 -3 15 -12 17 -12 11 3 -3 9 -1 22 5 30 6 7 8
16 4 19 -3 4 -1 7 6 7 8 0 11 6 7 16 -3 8 -2 12 4 9 6 -3 10 1 10 9 0 9 4 16
10 16 5 0 7 7 4 15 -4 8 -1 15 5 15 6 0 11 7 11 16 0 20 25 45 36 36 5 -4 2 1
-5 11 -12 15 -9 21 11 18 4 0 5 6 2 14 -3 8 8 27 25 44 18 17 27 31 22 31 -6
0 -8 7 -5 15 4 8 11 12 17 8 6 -4 8 2 5 15 -5 17 -2 22 13 22 12 0 16 5 12 15
-3 9 -2 15 3 14 21 -4 26 2 14 16 -10 12 -9 15 5 15 12 0 16 6 12 20 -3 11 -1
18 3 15 5 -3 11 4 15 15 4 11 10 18 15 15 9 -6 22 23 15 35 -3 4 2 11 11 14 8
3 12 10 9 16 -3 6 1 7 10 4 10 -4 14 -2 10 8 -3 8 9 29 28 49 19 18 37 46 41
61 4 20 11 26 23 21 11 -4 14 -3 9 5 -4 7 -3 12 3 12 6 0 8 7 5 15 -4 8 -2 15
4 15 15 0 20 60 6 75 -7 7 -10 15 -7 19 4 3 1 6 -6 6 -9 0 -9 5 -1 20 9 16 8
20 -6 20 -10 0 -15 3 -11 6 3 4 -3 24 -13 45 -23 45 -25 52 -7 44 6 -4 4 0 -6
8 -10 8 -19 24 -20 35 0 11 -4 19 -8 16 -4 -2 -13 4 -20 13 -10 11 -10 14 -2
9 9 -5 12 0 11 18 -1 15 -8 26 -15 26 -7 0 -10 6 -7 14 3 8 -2 26 -11 40 -10
14 -13 26 -9 26 5 0 3 4 -5 9 -8 5 -14 23 -14 40 0 16 -4 28 -8 25 -4 -2 -10
9 -14 26 -4 16 -11 30 -17 30 -6 0 -8 9 -5 20 3 11 1 20 -5 20 -5 0 -7 4 -4 9
3 5 -1 14 -9 21 -10 9 -12 16 -6 24 7 8 4 17 -9 26 -14 10 -16 17 -8 27 8 10
5 13 -13 14 -13 0 -18 3 -11 6 6 2 12 9 12 14 0 6 -4 8 -9 5 -4 -3 -7 6 -5 19
1 14 -2 23 -7 19 -9 -5 -11 0 -13 29 -1 6 -7 18 -14 26 -7 7 -11 19 -9 25 3 7
-14 11 -49 11 -30 0 -54 -3 -54 -7 0 -4 -11 -3 -25 2 -16 6 -25 6 -25 -1 0 -6
-7 -6 -20 1 -14 8 -20 8 -20 0 0 -6 -5 -8 -11 -5 -16 11 -59 13 -59 4 0 -5
-11 -4 -25 1 -16 6 -25 6 -25 -1 0 -6 -7 -6 -20 1 -14 8 -20 8 -20 0 0 -8 -6
-8 -20 0 -15 8 -20 8 -20 -2 0 -9 -3 -9 -10 2 -7 11 -10 11 -10 2 0 -7 -5 -10
-11 -7 -16 11 -119 11 -119 1 0 -6 -3 -6 -9 0 -6 5 -46 7 -90 4 -50 -3 -83 -1
-85 5 -3 6 -5 4 -5 -3 -1 -7 -6 -10 -12 -7 -15 10 -119 11 -119 2 0 -5 -5 -5
-11 -1 -13 8 -129 11 -129 3 0 -3 -22 -3 -50 1 -33 4 -50 3 -50 -4 0 -6 -5 -4
-10 4 -5 8 -10 10 -10 4 0 -8 -11 -9 -35 -4 -24 5 -35 4 -35 -4 0 -6 -5 -4
-10 4 -7 11 -10 11 -10 2 0 -7 -5 -10 -11 -7 -15 10 -119 11 -119 2 0 -5 -5
-5 -11 -1 -14 8 -129 11 -129 3 0 -4 -15 -4 -32 0 -18 4 -41 5 -50 3z"/>
<path d="M9275 8511 c-3 -5 -2 -12 3 -15 5 -3 9 1 9 9 0 17 -3 19 -12 6z"/>
<path d="M11480 7566 c0 -2 8 -10 18 -17 15 -13 16 -12 3 4 -13 16 -21 21 -21
13z"/>
</g>
</svg>
